<?xml version="1.0" encoding="utf-8"?><svg xmlns="http://www.w3.org/2000/svg" xmlns:xlink="http://www.w3.org/1999/xlink"><defs><svg viewBox="0 0 1024 1024" id="octicon-alert"><path d="M1005.854 800.247l-438.286-767C556.173 13.307 534.968 1 512 1s-44.173 12.306-55.567 32.247l-438.286 767c-11.32 19.81-11.238 44.144.213 63.876C29.81 883.855 50.9 896 73.714 896h876.572c22.814 0 43.903-12.145 55.354-31.877s11.533-44.067.214-63.876zM576 768H448V640h128v128zm0-192H448V320h128v256z"/></svg><svg viewBox="0 0 960 1024" id="octicon-alignment-align"><path d="M192 64C85.938 64 0 149.938 0 256s85.938 192 192 192 192-85.938 192-192S298.062 64 192 64zm480 544l160-160H384v448l160-160 288 288 128-128-288-288z"/></svg><svg viewBox="0 0 960 1024" id="octicon-alignment-aligned-to"><path d="M384 576l128-128 288 288 160-160v448H512l160-160-288-288zM192 448C85.938 448 0 362.062 0 256S85.938 64 192 64s192 85.938 192 192-85.938 192-192 192z"/></svg><svg viewBox="0 0 896 1024" id="octicon-alignment-unalign"><path d="M512 192L384 320 128 64 0 192l256 256-128 128 64 64 384-384-64-64zm128 384l128-128-64-64-384 384 64 64 128-128 256 256 128-128-256-256z"/></svg><svg viewBox="0 0 640 1024" id="octicon-arrow-down"><path d="M448 448V192H192v256H0l320 384 320-384H448z"/></svg><svg viewBox="0 0 640 1024" id="octicon-arrow-left"><path d="M384 384V192L0 512l384 320V640h256V384H384z"/></svg><svg viewBox="0 0 640 1024" id="octicon-arrow-right"><path d="M640 512L256 192v192H0v256h256v192l384-320z"/></svg><svg viewBox="0 0 384 1024" id="octicon-arrow-small-down"><path d="M256 448V320H128v128H0l192 256 192-256H256z"/></svg><svg viewBox="0 0 384 1024" id="octicon-arrow-small-left"><path d="M256 448V320L0 512l256 192V576h128V448H256z"/></svg><svg viewBox="0 0 384 1024" id="octicon-arrow-small-right"><path d="M384 512L128 320v128H0v128h128v128l256-192z"/></svg><svg viewBox="0 0 384 1024" id="octicon-arrow-small-up"><path d="M192 320L0 576h128v128h128V576h128L192 320z"/></svg><svg viewBox="0 0 640 1024" id="octicon-arrow-up"><path d="M320 192L0 576h192v256h256V576h192L320 192z"/></svg><svg viewBox="0 0 1024 1024" id="octicon-beer"><path d="M896 256H704V128C704 57 546 0 352 0S0 57 0 128v768c0 71 158 128 352 128s352-57 352-128V768h192s64-30 64-64V320s-29-64-64-64zM192 832h-64V320h64v512zm192 64h-64V384h64v512zm192-64h-64V320h64v512zM352 192c-124 0-224-29-224-64s100-64 224-64 224 29 224 64-100 64-224 64zm480 448H704V384h128v256z"/></svg><svg viewBox="0 0 1024 1024" id="octicon-book"><path d="M768 576H640c-34 0-64 32-64 64h256c0-34-32-64-64-64zm-55-416c-167 0-209 32-233 56-24-24-66-56-233-56S0 206 0 238v586c29-16 119-48 214-56 115-9 234 9 234 32 0 16 8 31 31 32h2c23-1 31-16 31-32 0-23 119-41 234-32 94 7 185 40 214 56V238c0-32-80-78-247-78zM448 732c-30-16-103-28-192-28S86 716 64 731V288s64-59 192-59 192 27 192 59v444zm448-1c-22-15-103-27-192-27s-162 12-192 28V288s64-59 192-59 192 27 192 59v443zM768 448H640c-34 0-64 32-64 64h256c0-34-32-64-64-64zm0-128H640c-34 0-64 32-64 64h256c0-34-32-64-64-64zM320 448H192c-32 0-64 30-64 64h256c0-32-30-64-64-64zm0 128H192c-32 0-64 30-64 64h256c0-32-30-64-64-64zm0-256H192c-32 0-64 30-64 64h256c0-32-30-64-64-64z"/></svg><svg viewBox="0 0 384 1024" id="octicon-bookmark"><path d="M0 128v768l192-128 192 128V128H0zm316.25 196.75l-71.875 51.938 27.188 83.406c2.75 8.375-.688 11.062-7.562 6.594l-72-52.094-72 52.03c-6.843 4.47-10.31 1.782-7.56-6.593l27.218-83.405-71.875-51.875c-6.47-5.125-5-9.22 3.906-9.22l88-.124 27.124-83.094c2.812-8.812 7.562-8.812 10.375 0l27.187 83.094 87.938.125c8.935 0 10.373 4.095 3.935 9.22z"/></svg><svg viewBox="0 0 1024 1024" id="octicon-briefcase"><path d="M896 192H640v-66c0-34.2-27.8-62-62-62H446c-34.2 0-62 27.8-62 62v66H128c-35.3 0-64 28.7-64 64v512c0 35.3 28.7 64 64 64h768c35.3 0 64-28.7 64-64V256c0-35.3-28.7-64-64-64zm-448-48c0-8.8 7.2-16 16-16h96c8.8 0 16 7.2 16 16v48H448v-48zm448 368H576v64H448v-64H128V256h64v192h640V256h64v256z"/></svg><svg viewBox="0 0 896 1024" id="octicon-broadcast"><path d="M448 192c142 0 256 115 256 256 0 69-28 132-72 178l-16 93c91-56 152-156 152-271 0-177-143-320-320-320S128 271 128 448c0 115 61 215 152 271l-16-93c-45-46-72-109-72-178 0-142 114-256 256-256zm-64 320c-36 0-64 29-64 64v128c0 36 30 64 64 64v256h128V768c34 0 64-28 64-64V576c0-35-28-64-64-64H384zm192-128c0-71-57-128-128-128s-128 57-128 128 57 128 128 128 128-57 128-128zM448 0C201 0 0 201 0 448c0 197 128 363 305 423l-12-72C158 739 64 605 64 448 64 236 236 64 448 64s384 172 384 384c0 157-94 291-229 351l-12 72c177-60 305-225 305-423C896 201 695 0 448 0z"/></svg><svg viewBox="0 0 896 1024" id="octicon-browser"><path d="M320 192h64v64h-64v-64zm-128 0h64v64h-64v-64zm-128 0h64v64H64v-64zm768 640H64V320h768v512zm0-576H448v-64h384v64zm64-64c0-35.35-28.65-64-64-64H64c-35.35 0-64 28.65-64 64v640c0 35.35 28.65 64 64 64h768c35.35 0 64-28.65 64-64V192z"/></svg><svg viewBox="0 0 733.886 1024" id="octicon-bug"><path d="M243.62 156.53C190.748 213.313 205.34 304 205.34 304s53.968 64 160 64c106.03 0 160.03-64 160.03-64s14.376-89.47-37.374-146.312c32.375-18.03 51.438-44.094 43.562-61.812-8.938-19.97-48.375-21.75-88.25-3.97-14.812 6.595-27.438 14.97-37.25 23.876-12.438-2.25-25.625-3.78-40.72-3.78-14.06 0-26.56 1.343-38.344 3.25-9.656-8.75-22.062-16.876-36.53-23.345-39.876-17.72-79.376-15.938-88.25 3.97-7.75 17.342 10.283 42.685 41.407 60.654zm401.126 413.22c-8.25-1.75-16.125-2.75-23.75-3.5 0-2.125.375-4.125.375-6.312 0-33.594-4.75-65.654-12.437-96.125 16.438 1.406 37.375-2.375 58.562-11.78 39.875-17.78 65-48.374 56.125-68.218-8.875-19.97-48.375-21.75-88.25-3.97-18.625 8.313-33.812 19.47-44 30.907-7.75-18.25-16.5-35.78-26.812-51.72-30.188 25.157-87.312 62.72-167.062 71.063v321.78s-.25 32-32.03 32c-31.75 0-32-32-32-32V430.22c-79.812-8.345-136.97-45.97-167.094-71.063-9.875 15.312-18.375 32-25.938 49.344-10.28-10.624-24.625-20.843-41.97-28.593-39.874-17.72-79.374-15.938-88.25 3.97-8.905 19.905 16.25 50.437 56.126 68.218 19.844 8.846 39.53 12.812 55.47 12.096-7.657 30.405-12.47 62.345-12.47 95.813 0 2.188.375 4.25.438 6.5-6.72.75-13.688 1.75-20.78 3.25-51.97 10.75-91.782 37.625-88.845 59.812 2.938 22.312 47.5 31.5 99.594 20.688 6.78-1.375 13.438-3.125 19.78-5.062 9.157 40.81 23.813 78.685 44.095 111.31-12.03 6.062-24.53 15-36.03 26.625C95.714 815 82.778 853.75 98.714 869.688c15.938 15.937 54.656 3 86.53-28.812 9.345-9.375 16.845-19.25 22.657-29C251.434 854.5 305.965 880 365.465 880c60.343 0 115.78-26.25 159.53-69.938 5.876 10.312 13.75 20.812 23.626 30.688 31.813 31.875 70.626 44.812 86.563 28.875s3-54.625-28.875-86.5c-12.312-12.375-25.688-21.75-38.438-27.938 20.125-32.5 34.625-70.375 43.688-111.062 7.188 2.25 14.688 4.375 22.562 6.062 52.06 10.812 96.625 1.562 99.625-20.688 2.813-22.125-37-49-89-59.75z"/></svg><svg viewBox="0 0 1024 1024" id="octicon-calendar"><path d="M704 512h-64v128h64V512zm-128 0h-64v128h64V512zm128-192h-64v128h64V320zm128 192h-64v128h64V512zM576 704h-64v128h64V704zM768 0h-64v128h64V0zM256 0h-64v128h64V0zm576 320h-64v128h64V320zm-256 0h-64v128h64V320zM320 704h-64v128h64V704zM192 512h-64v128h64V512zm128 0h-64v128h64V512zM832 64v128H640V64H320v128H128V64H0v896h960V64H832zm64 832H64V256h832v640zM192 704h-64v128h64V704zm256-384h-64v128h64V320zm0 384h-64v128h64V704zM320 320h-64v128h64V320zm128 192h-64v128h64V512zm256 192h-64v128h64V704z"/></svg><svg viewBox="0 0 768 1024" id="octicon-check"><path d="M640 192L256 576 128 448 0 576l256 256 512-512-128-128z"/></svg><svg viewBox="0 0 765.602 1024" id="octicon-checklist"><path d="M760.688 516.22l-49.812-49.657c-6.438-6.53-16.938-6.594-23.375 0L582.5 571.5 462.375 691.875l-93.03-93.125c-6.532-6.562-17.032-6.562-23.5 0l-49.72 49.688c-6.53 6.562-6.53 17.062 0 23.562l104.78 104.875 17.97 17.875 31.688 31.812c6.562 6.562 17.188 6.562 23.562 0l49.625-49.688L760.625 539.78c6.625-6.468 6.625-16.968.063-23.56zm-532.22 64.592L278.157 531c42.47-42.375 116.344-42.438 158.78.062l25.313 25.312L576 448V128H0v704h320l-91.53-92.125c-43.782-43.937-43.782-115.25 0-159.063zM192 192h320v64H192v-64zm0 128h320v64H192v-64zm-64 192H64v-64h64v64zm0-128H64v-64h64v64zm0-128H64v-64h64v64zm64 192h64v64h-64v-64z"/></svg><svg viewBox="0 0 640 1024" id="octicon-chevron-down"><path d="M512 320L320 512 128 320 0 448l320 320 320-320-128-128z"/></svg><svg viewBox="0 0 448 1024" id="octicon-chevron-left"><path d="M448 320L320 192 0 512l320 320 128-128-192-192 192-192z"/></svg><svg viewBox="0 0 448 1024" id="octicon-chevron-right"><path d="M128 192L0 320l192 192L0 704l128 128 320-320-320-320z"/></svg><svg viewBox="0 0 640 1024" id="octicon-chevron-up"><path d="M320 256L0 576l128 128 192-192 192 192 128-128-320-320z"/></svg><svg viewBox="0 0 640 1024" id="octicon-circle-slash"><path d="M320 192C143.22 192 0 335.22 0 512c0 176.75 143.22 320 320 320 176.75 0 320-143.25 320-320 0-176.78-143.25-320-320-320zm0 128c27.656 0 53.688 6.094 77.438 16.562L144.562 589.438C134.094 565.688 128 539.656 128 512c0-106 85.938-192 192-192zm0 384c-28.03 0-54.53-6.375-78.594-17.125l253.906-252.5C505.875 458.188 512 484.28 512 512c0 106.062-85.938 192-192 192z"/></svg><svg viewBox="0 0 1024 1024" id="octicon-circuit-board"><path d="M320 256c35.346 0 64 28.654 64 64 0 35.346-28.654 64-64 64s-64-28.654-64-64c0-35.346 28.654-64 64-64zm640 512c0 106.04-85.96 192-192 192H320l192-192h81.128c22.132 38.258 63.494 64 110.872 64 70.692 0 128-57.308 128-128s-57.308-128-128-128c-47.377 0-88.74 25.742-110.872 64H448L156.044 931.956C100.844 898.232 64 837.42 64 768V256c0-106.04 85.96-192 192-192v145.128C217.742 231.26 192 272.623 192 320c0 70.692 57.308 128 128 128 47.276 0 88.56-25.633 110.727-63.756l162.416-.22C615.28 422.27 656.633 448 704 448c70.692 0 128-57.308 128-128s-57.308-128-128-128c-47.388 0-88.758 25.753-110.887 64.025l-162.097.22c-11.246-19.54-27.503-35.83-47.016-47.117V64h384c106.04 0 192 85.96 192 192v512zm-320-64c0-35.346 28.654-64 64-64s64 28.654 64 64c0 35.346-28.654 64-64 64s-64-28.654-64-64zm0-384c0-35.346 28.654-64 64-64s64 28.654 64 64c0 35.346-28.654 64-64 64s-64-28.654-64-64z"/></svg><svg viewBox="0 0 896 1024" id="octicon-clippy"><path d="M704 896H64V320h640v192h64V192c0-35-29-64-64-64H512C512 57 455 0 384 0S256 57 256 128H64c-35 0-64 29-64 64v704c0 35 29 64 64 64h640c35 0 64-29 64-64V768h-64v128zM192 192h64s64-29 64-64 29-64 64-64 64 29 64 64 32 64 64 64h64s64 29 64 64H128c0-39 28-64 64-64zm-64 512h128v-64H128v64zm448-128V448L320 640l256 192V704h320V576H576zM128 832h192v-64H128v64zm320-448H128v64h320v-64zM256 512H128v64h128v-64z"/></svg><svg viewBox="0 0 896 1024" id="octicon-clock"><path d="M384 576h256l64-64-64-64H512V256l-64-64-64 64v320zm64-512C200.562 64 0 264.562 0 512s200.562 448 448 448 448-200.562 448-448S695.438 64 448 64zm0 768c-176.25 0-320-143.75-320-320 0-175.938 144.188-319.5 320-320 175.812.5 320 144.062 320 320 0 176.25-143.75 320-320 320z"/></svg><svg viewBox="0 0 1024 1024" id="octicon-cloud-download"><path d="M832 320c-8.75 0-17.125 1.406-25.625 2.562C757.625 208.25 644.125 128 512 128c-132.156 0-245.562 80.25-294.406 194.562C209.156 321.406 200.78 320 192 320 85.938 320 0 405.938 0 512s85.938 192 192 192c20.53 0 39.875-4.25 58.375-10.375C284.47 731.375 331.312 756.75 384 764.5v-65.25c-49.844-10.375-91.594-42.812-112.625-87.875C249.53 629 222.22 640 192 640c-70.656 0-128-57.375-128-128 0-70.656 57.344-128 128-128 25.28 0 48.625 7.562 68.406 20.094C281.344 283.78 385.594 192 512 192c126.5 0 229.75 92.22 250.5 212.75 20-13 43.875-20.75 69.5-20.75 70.625 0 128 57.344 128 128 0 70.625-57.375 128-128 128-10.25 0-20-1.5-29.625-3.75C773.438 677.125 725.938 704 672 704c-11.062 0-21.625-1.625-32-4v64.938c10.438 1.688 21.062 3.062 32 3.062 61.188 0 116.5-24.625 156.938-64.438 1.062.063 1.937.438 3.062.438 106.062 0 192-85.938 192-192s-85.938-192-192-192zM576 512H448v320H320l192 192 192-192H576V512z"/></svg><svg viewBox="0 0 1024 1024" id="octicon-cloud-upload"><path d="M512 384L320 576h128v320h128V576h128L512 384zm320-64c-8.75 0-17.125 1.406-25.625 2.562C757.625 208.188 644.125 128 512 128c-132.156 0-245.562 80.188-294.406 194.562C209.156 321.406 200.78 320 192 320 85.938 320 0 406 0 512c0 106.062 85.938 192 192 192 20.53 0 39.875-4.25 58.375-10.438C284.47 731.375 331.312 756.75 384 764.5v-65.25c-49.844-10.375-91.594-42.812-112.625-87.75C249.53 629 222.22 640 192 640c-70.656 0-128-57.375-128-128 0-70.656 57.344-128 128-128 25.28 0 48.625 7.562 68.406 20.156C281.344 283.78 385.594 192 512 192c126.5 0 229.75 92.22 250.5 212.75 20-13 43.875-20.75 69.5-20.75 70.625 0 128 57.344 128 128 0 70.625-57.375 128-128 128-10.25 0-20-1.5-29.625-3.75C773.438 677.125 725.938 704 672 704c-11.062 0-21.625-1.625-32-4v64.938c10.438 1.688 21.062 3.062 32 3.062 61.188 0 116.5-24.688 157-64.438 1 0 1.875.438 3 .438 106.062 0 192-85.938 192-192 0-106-85.938-192-192-192z"/></svg><svg viewBox="0 0 896 1024" id="octicon-code"><path d="M608 192l-96 96 224 224-224 224 96 96 288-320-288-320zm-320 0L0 512l288 320 96-96-224-224 224-224-96-96z"/></svg><svg viewBox="0 0 768 1024" id="octicon-color-mode"><path d="M0 128v768h768V128H0zm64 704V192h640L64 832z"/></svg><svg viewBox="0 0 896 1024" id="octicon-comment"><path d="M768 128H128C66 128 0 192 0 256v384c0 128 128 128 128 128h64v256l256-256h320s128-68 128-128V256c0-62-64-128-128-128z"/></svg><svg viewBox="0 0 896 1024" id="octicon-comment-discussion"><path d="M256 512V320H64S0 352 0 384v320s32 64 64 64h64v192l194-192h192s62-32 62-64v-64H384s-128-64-128-128zm576-384H384s-64 32-64 64v320s32 64 64 64h190l194 192V576h64s64-32 64-64V192s-32-64-64-64z"/></svg><svg viewBox="0 0 1024 1024" id="octicon-credit-card"><path d="M128 704h128v-64H128v64zm192 0h128v-64H320v64zm64-192H128v64h256v-64zm-128-64h64l128-128h-64L256 448zm192 128h192v-64H448v64zm512-384H64S0 224 0 256v512s32 64 64 64h896s64-32 64-64V256s-32-64-64-64zm0 256v288s0 32-32 32H96c-32 0-32-32-32-32V448h64l128-128H64v-32s0-32 32-32h832c32 0 32 32 32 32v32H576L448 448h512z"/></svg><svg viewBox="0 0 512 1024" id="octicon-dash"><path d="M0 448v128h512V448H0z"/></svg><svg viewBox="0 0 832 1024" id="octicon-dashboard"><path d="M416 464.5c-61.562 0-111.5 49.938-111.5 111.5S354.438 687.5 416 687.5 527.5 637.562 527.5 576c0-8.5-1.125-16.75-3-24.688C606.125 456.375 732.5 308.344 800 224c23.125-28.875-2.312-56.188-32-32-85.188 69.375-232.312 194.688-326.906 275.594-8.063-1.875-16.47-3.094-25.094-3.094zm31.875-208.625c0-17.656-14.344-32-32-32s-32 14.344-32 32 14.344 32 32 32 32-14.344 32-32zm192 256c0 17.656 14.375 32 32 32s32-14.344 32-32-14.375-32-32-32-32 14.344-32 32zm-352-256c-17.656 0-32 14.344-32 32s14.344 32 32 32 32-14.344 32-32-14.344-32-32-32zm-64 128c0-17.656-14.344-32-32-32s-32 14.344-32 32 14.344 32 32 32 32-14.344 32-32zm-96 128c0 17.656 14.344 32 32 32s32-14.344 32-32-14.344-32-32-32-32 14.344-32 32zm448-224c0-17.656-14.375-32-32-32s-32 14.344-32 32 14.375 32 32 32 32-14.344 32-32zm217 48.813l-68.75 89.938C731.625 453.812 736 482.376 736 512c0 176.75-143.312 320-320 320S96 688.75 96 512c0-176.688 143.312-320 320-320 65.875 0 127 19.97 177.875 54.094l79.25-60.625C602.375 129.593 513.25 96 416 96 186.25 96 0 282.25 0 512s186.25 416 416 416 416-186.25 416-416c0-62.72-14.25-122-39.125-175.312z"/></svg><svg viewBox="0 0 768 1024" id="octicon-database"><path d="M384 960C171.97 960 0 902.625 0 832V704c0-11.125 5.562-21.688 13.562-32C56.375 727.125 205.25 768 384 768s327.625-40.875 370.438-96c8 10.312 13.562 20.875 13.562 32v128c0 70.625-172 128-384 128zm0-256C171.97 704 0 646.625 0 576V448c0-6.78 2.562-13.375 6-19.906C7.938 424 10.5 419.97 13.562 416 56.375 471.094 205.25 512 384 512s327.625-40.906 370.438-96c3.062 3.97 5.625 8 7.562 12.094 3.438 6.53 6 13.125 6 19.906v128c0 70.625-172 128-384 128zm0-256C171.97 448 0 390.656 0 320v-64-64C0 121.344 171.97 64 384 64c212 0 384 57.344 384 128v128c0 70.656-172 128-384 128zm0-320c-141.375 0-256 28.594-256 64s114.625 64 256 64 256-28.594 256-64-114.625-64-256-64z"/></svg><svg viewBox="0 0 1024 1024" id="octicon-device-camera"><path d="M512 384c-70.69 0-128 57.31-128 128s57.31 128 128 128c5.713 0 11.337-.38 16.852-1.106-46.344-7.058-81.85-47.08-81.85-95.394 0-53.295 43.203-96.5 96.498-96.5 48.314 0 88.336 35.508 95.394 81.852.726-5.515 1.105-11.14 1.105-16.852 0-70.69-57.31-128-128-128zm384-128H768L640 128H384L256 256H128c-35.348 0-64 28.652-64 64v448c0 35.347 28.652 64 64 64h768c35.347 0 64-28.653 64-64V320c0-35.348-28.653-64-64-64zm-480-64h192l64 64H352l64-64zM160.143 768C142.39 768 128 753.61 128 735.857V448h64v-64h-64v-31.857C128 334.39 142.39 320 160.143 320H342.67c-3.98 3.518-7.882 7.174-11.69 10.98-99.973 99.975-99.973 262.064 0 362.04L405.96 768H160.144zM512 704c-106.038 0-192-85.962-192-192s85.962-192 192-192 192 85.962 192 192-85.962 192-192 192zm320-224L681.327 320H832v160z"/></svg><svg viewBox="0 0 1024 1024" id="octicon-device-camera-video"><path d="M576 192c-35.347 0-64 28.653-64 64s28.653 64 64 64 64-28.653 64-64-28.653-64-64-64zm320 192L768 512v-64c0-30.625-21.515-56.21-50.25-62.503C748.958 351.354 768 305.903 768 256.002 768 149.962 682.04 64 576 64c-101.123 0-183.986 78.178-191.45 177.393C350.516 210.693 305.442 192 256 192c-106.038 0-192 85.962-192 192.002C64 490.04 149.962 576 256 576h-64v128h64v128c0 35.347 28.653 64 64 64h384c35.347 0 64-28.653 64-64v-64l128 128h64V384h-64zm-640-64c-35.347 0-64 28.653-64 64s28.653 64 64 64v64c-70.692 0-128-57.308-128-128 0-70.692 57.308-128 128-128s128 57.307 128 128h-64c0-35.347-28.653-64-64-64zm320 384H448V576h128v128zm128-109.213c-33.526-33.547-70.276-70.317-73.373-73.414-5.79-5.79-13.79-9.373-22.627-9.373H416c-17.674 0-32 14.326-32 32v192c0 8.33 3.183 15.915 8.396 21.607.53.58 39.123 39.164 74.41 74.393H352c-17.674 0-32-14.326-32-32V480c0-17.674 14.326-32 32-32h320c17.674 0 32 14.326 32 32v114.787zM576 384c-70.692 0-128-57.308-128-128 0-70.692 57.308-128 128-128s128 57.308 128 128c0 70.692-57.308 128-128 128zm320 320l-64-64 .082-128.084L896 447.998V704z"/></svg><svg viewBox="0 0 1024 1024" id="octicon-device-desktop"><path d="M960 64H64S0 96 0 128v576s32 64 64 64h320s-192 64-192 128c0 32 32 64 64 64h512s64-32 64-64c0-64-192-128-192-128h320s64-32 64-64V128s-32-64-64-64zm0 640H64V128h896v576zm-64-512H704c-384 64-542 300-576 384v64h768V192z"/></svg><svg viewBox="0 0 640 1024" id="octicon-device-mobile"><path d="M576 0H64C28.688 0 0 28.688 0 64v896c0 35.375 28.688 64 64 64h512c35.375 0 64-28.625 64-64V64c0-35.312-28.625-64-64-64zM288 64h64c17.625 0 32 14.344 32 32s-14.375 32-32 32h-64c-17.656 0-32-14.344-32-32s14.344-32 32-32zm64 896h-64c-17.656 0-32-14.375-32-32s14.344-32 32-32h64c17.625 0 32 14.375 32 32s-14.375 32-32 32zm224-128H64V192h512v640z"/></svg><svg viewBox="0 0 896 1024" id="octicon-diff"><path d="M448 256H320v128H192v128h128v128h128V512h128V384H448V256zM192 896h384V768H192v128zM640 0H128v64h480l224 224v608h64V256L640 0zM0 128v896h768V320L576 128H0zm704 832H64V192h480l160 160v608z"/></svg><svg viewBox="0 0 896 1024" id="octicon-diff-added"><path d="M512 320H384v128H256v128h128v128h128V576h128V448H512V320zM832 64H64S0 96 0 128v768s32 64 64 64h768s64-32 64-64V128s-32-64-64-64zm-64 736c0 16-17 32-32 32H160s-32-12-32-32V224s16-32 32-32h576s32 16 32 32v576z"/></svg><svg viewBox="0 0 896 1024" id="octicon-diff-ignored"><path d="M832 64H64C32 64 0 96 0 128v768c0 32 32 64 64 64h768c32 0 64-32 64-64V128c0-32-32-64-64-64zm-64 736c0 16-17 32-32 32H160c-18 0-32-12-32-32V224c0-16 16-32 32-32h576c15 0 32 16 32 32v576zM256 606v98h98l286-286v-98h-98L256 606z"/></svg><svg viewBox="0 0 896 1024" id="octicon-diff-modified"><path d="M832 64H64C32 64 0 96 0 128v768c0 32 32 64 64 64h768c32 0 64-32 64-64V128c0-32-32-64-64-64zm-64 736c0 16-17 32-32 32H160c-18 0-32-12-32-32V224c0-16 16-32 32-32h576c15 0 32 16 32 32v576zM448 384c-71 0-128 57-128 128s57 128 128 128 128-57 128-128-57-128-128-128z"/></svg><svg viewBox="0 0 896 1024" id="octicon-diff-removed"><path d="M832 64H64C32 64 0 96 0 128v768c0 32 32 64 64 64h768c32 0 64-32 64-64V128c0-32-32-64-64-64zm-64 736c0 16-17 32-32 32H160c-18 0-32-12-32-32V224c0-16 16-32 32-32h576c15 0 32 16 32 32v576zM256 576h384V448H256v128z"/></svg><svg viewBox="0 0 896 1024" id="octicon-diff-renamed"><path d="M832 64H64C32 64 0 96 0 128v768c0 32 32 64 64 64h768c32 0 64-32 64-64V128c0-32-32-64-64-64zm-64 736c0 16-17 32-32 32H160c-18 0-32-12-32-32V224c0-16 16-32 32-32h576c15 0 32 16 32 32v576zM448 448H256v128h192v128l256-192-256-192v128z"/></svg><svg viewBox="0 0 768 1024" id="octicon-ellipsis"><path d="M640 320H128S0 384 0 448v128s64 128 128 128h512s128-64 128-128V448s-64-128-128-128zM256 576H128V448h128v128zm192 0H320V448h128v128zm192 0H512V448h128v128z"/></svg><svg viewBox="0 0 1024 1024" id="octicon-eye"><path d="M512 128C320 128 96 256 0 512c96 192 288 320 512 320s416-128 512-320c-96-256-320-384-512-384zm0 640c-192 0-352-128-384-256 32-128 192-256 384-256s352 128 384 256c-32 128-192 256-384 256zm0-448c-20 0-38 4-56 9 33 15 56 48 56 87 0 53-43 96-96 96-39 0-72-23-87-56-5 18-9 36-9 56 0 106 86 192 192 192s192-86 192-192-86-192-192-192z"/></svg><svg viewBox="0 0 768 1024" id="octicon-file-binary"><path d="M0 960V64h576l192 192v704zm704-672L544 128H64v768h640zM320 512H128V256h192zm-64-192h-64v128h64zm0 448h64v64H128v-64h64V640h-64v-64h128zm256-320h64v64H384v-64h64V320h-64v-64h128zm64 384H384V576h192zm-64-192h-64v128h64z"/></svg><svg viewBox="0 0 768 1024" id="octicon-file-code"><path d="M288 384L128 544l160 160 64-64-96-96 96-96zm128 64l96 96-96 96 64 64 160-160-160-160zM576 64H0v896h768V256zm128 832H64V128h480l160 160z"/></svg><svg viewBox="0 0 896 1024" id="octicon-file-directory"><path d="M832 192H480s-32-16-32-32v-32s-32-64-64-64H64S0 96 0 128v704h896V256s-32-64-64-64zm-448 0H64v-32s16-32 32-32h256s32 15 32 32v32z"/></svg><svg viewBox="0 0 768 1024" id="octicon-file-media"><path d="M576 64H0v896h768V256zm128 832H64V128h480l160 160zM128 256v512h128c0-71 57-128 128-128-71 0-128-57-128-128s57-128 128-128 128 57 128 128-57 128-128 128c71 0 128 57 128 128h128V384L512 256z"/></svg><svg viewBox="0 0 768 1024" id="octicon-file-pdf"><path d="M576 64H0v896h768V256zM64 128h256c-13 4-27 15-35 43-13 49-7 131 16 209-24 81-123 277-129 289-16 4-66 23-108 59zm283 307c58 150 95 150 135 168-84 13-148 22-232 60-4 6 76-146 97-228zm357 461H64h2c34 0 85-21 180-182 39-16 72-27 79-29 59-15 125-27 187-34 55 28 127 46 168 49 10 0 16-2 24-2zm0-311c-24-14-54-25-89-25-24 0-51 2-79 5-27-13-92-33-147-190 17-104 13-174 13-174 6-53-24-73-52-73h194l160 160z"/></svg><svg viewBox="0 0 896 1024" id="octicon-file-submodule"><path d="M832 512H640c0-32-32-64-64-64H448s-64 32-64 64v320h512V576s-32-64-64-64zm-256 64H448v-32s15-32 32-32h64s32 15 32 32v32zm256-320H480s-32-17-32-32v-32s-32-64-64-64H64S0 160 0 192v640h320V448s32-64 64-64h256s64 32 64 64h192V320s-32-64-64-64zm-448 0H64v-32s16-32 32-32h256s32 17 32 32v32z"/></svg><svg viewBox="0 0 896 1024" id="octicon-file-symlink-directory"><path d="M832 192H480c-16 0-32-16-32-32v-32s-32-64-64-64H64C32 64 0 96 0 128v704h896V256s-32-64-64-64zM64 160c0-17 16-32 32-32h256c15 0 32 15 32 32v32H64v-32zm384 544V576c-125 0-224 56-256 192 0-209 107-320 256-320V320l256 192-256 192z"/></svg><svg viewBox="0 0 768 1024" id="octicon-file-symlink-file"><path d="M576 64H0v896h768V256zm128 832H64V128h480l160 160zM384 448c-149 0-256 111-256 320 32-136 131-192 256-192v128l256-192-256-192z"/></svg><svg viewBox="0 0 768 1024" id="octicon-file-text"><path d="M448 256H128v64h320zM576 64H0v896h768V256zm128 832H64V128h480l160 160zM128 768h512v-64H128zm0-128h512v-64H128zm0-128h512v-64H128z"/></svg><svg viewBox="0 0 768 1024" id="octicon-file-zip"><path d="M320 576v-64h-64v64zm0-128v-64h-64v64zm0-128v-64h-64v64zm-128 64h64v-64h-64zM576 64H0v896h768V256zm128 832H64V128h192v64h64v-64h224l160 160zM192 256h64v-64h-64zm0 256h64v-64h-64zm0 128l-64 64v128h256V704l-64-64h-64v-64h-64zm128 64v64H192v-64z"/></svg><svg viewBox="0 0 1024 1024" id="octicon-flame"><path d="M433 45c50 134 24 207-32 265-61 64-156 112-223 206C89 641 74 916 395 988c-135-71-164-277-18-406-38 125 32 205 119 176 85-29 141 32 139 102-1 48-20 89-69 112 209-37 293-210 293-342 0-174-155-198-77-344-93 8-125 69-116 169 6 66-63 111-114 81-41-25-40-73-4-109 77-76 107-251-115-382z"/></svg><svg viewBox="0 0 896 1024" id="octicon-fold"><path d="M896 256H672l-64 64h192L672 448H224L96 320h192l-64-64H0v64l160 160L0 640v64h224l64-64H96l128-128h448l128 128H608l64 64h224v-64L736 480l160-160v-64zm-256-64H512V0H384v192H256l192 192 192-192zM256 768h128v192h128V768h128L448 576 256 768z"/></svg><svg viewBox="0 0 896 1024" id="octicon-gear"><path d="M447.938 350C358.53 350 286 422.53 286 512c0 89.375 72.53 162.062 161.938 162.062 89.438 0 161.438-72.688 161.438-162.062 0-89.47-72-162-161.438-162zm324.687 255.062l-29.188 70.312 52.062 102.25 6.874 13.5-72.188 72.188-118.436-55.937-70.312 28.875L505.75 945.5l-4.562 14.5H399.156L355 836.688l-70.312-29-102.404 51.938-13.5 6.75-72.156-72.125 55.875-118.5-28.97-70.25L14.47 569.876 0 565.188v-101.97L123.406 419l28.97-70.188-51.907-102.47-6.845-13.437 72.062-72.062 118.594 55.844 70.22-29.03 35.656-109.19L394.75 64h102l44.188 123.47 70.125 29.03L713.5 164.53l13.625-6.843 72.125 72.062-55.875 118.405L772.25 418.5l109.375 35.656L896 458.75v101.938l-123.375 44.374z"/></svg><svg viewBox="0 0 896 1024" id="octicon-gift"><path d="M448 960h320V640H448v320zm-384 0h320V640H64v320zm383.75-583.812c31.47-3.5 66.875-7.406 87.375-9.72C619 357.126 694.5 281.595 703.812 197.75c9.312-83.75-51-144.125-134.688-134.72C503.688 70.345 443.844 118 416 178.376 388.156 118 328.312 70.345 262.906 62.97 179.188 53.624 118.78 114 128.188 197.75c9.344 83.844 84.875 159.312 168.656 168.72 20.53 2.31 55.938 6.28 87.406 9.718-.5 4.218-.25 7.812-.25 7.812h64s.25-3.594-.25-7.812zm107.625-235.5c45.25-5.062 78 27.562 72.875 72.875-5 45.312-45.875 86.156-91.125 91.22-45.375 5.03-78-27.595-72.938-72.907 5.062-45.312 45.938-86.157 91.188-91.188zM294.905 304.78c-45.25-5.06-86.06-45.905-91.124-91.218-5.062-45.313 27.595-77.938 72.813-72.875 45.312 5.03 86.156 45.875 91.222 91.188 5.06 45.313-27.596 77.937-72.91 72.906zM448 384v192h384V384H448zM0 576h384V384H0v192z"/></svg><svg viewBox="0 0 768 1024" id="octicon-gist"><path d="M416 384l96 96-96 96 64 64 160-160-160-160-64 64zM0 64v832h768V64H0zm704 768H64V128h640v704zM352 576l-96-96 96-96-64-64-160 160 160 160 64-64z"/></svg><svg viewBox="0 0 896 1024" id="octicon-gist-secret"><path d="M193 704l128 192H65L0 640l257-64-64 128zm448-128l64 128-128 192h256l64-256-256-64zm-84 0H341l44 102-64 218h256l-64-218 44-102zm84-192H257l-128 64h640l-128-64zm-64-256l-128 64-128-64-64 192h384l-64-192z"/></svg><svg viewBox="0 0 640 1024" id="octicon-git-branch"><path d="M512 192c-71 0-128 57-128 128 0 47 26 88 64 110v18c0 64-64 128-128 128-53 0-95 11-128 29V302c38-22 64-63 64-110 0-71-57-128-128-128S0 121 0 192c0 47 26 88 64 110v419C26 743 0 784 0 831c0 71 57 128 128 128s128-57 128-128c0-34-13-64-34-87 19-23 49-41 98-41 128 0 256-128 256-256v-18c38-22 64-63 64-110 0-71-57-128-128-128zm-384-64c35 0 64 29 64 64s-29 64-64 64-64-29-64-64 29-64 64-64zm0 768c-35 0-64-29-64-64s29-64 64-64 64 29 64 64-29 64-64 64zm384-512c-35 0-64-29-64-64s29-64 64-64 64 29 64 64-29 64-64 64z"/></svg><svg viewBox="0 0 896 1024" id="octicon-git-commit"><path d="M694.875 448C666.375 337.78 567.125 256 448 256c-119.094 0-218.375 81.78-246.906 192H0v128h201.094C229.624 686.25 328.906 768 448 768c119.125 0 218.375-81.75 246.875-192H896V448H694.875zM448 640c-70.656 0-128-57.375-128-128 0-70.656 57.344-128 128-128 70.625 0 128 57.344 128 128 0 70.625-57.375 128-128 128z"/></svg><svg viewBox="0 0 896 1024" id="octicon-git-compare"><path d="M832 722V320s-96-192-192-192h-64V0L384 192l192 192V256h64s64 32 64 64v402c-38 22-64 63-64 110 0 71 57 128 128 128s128-57 128-128c0-47-26-88-64-110zm-64 174c-35 0-64-29-64-64s29-64 64-64 64 29 64 64-29 64-64 64zM320 768h-64s-64-32-64-64V302c38-22 64-63 64-110 0-71-57-128-128-128S0 121 0 192c0 47 26 88 64 110v402s96 192 192 192h64v128l192-192-192-192v128zM128 256c-35 0-64-29-64-64s29-64 64-64 64 29 64 64-29 64-64 64z"/></svg><svg viewBox="0 0 768 1024" id="octicon-git-merge"><path d="M640 448c-47.625 0-88.625 26.312-110.625 64.906C523.625 512.5 518 512 512 512c-131.062 0-255.438-99.844-300.812-223.438C238.468 265.094 256 230.72 256 192c0-70.656-57.344-128-128-128S0 121.344 0 192c0 47.22 25.844 88.062 64 110.28v419.47C25.844 743.938 0 784.75 0 832c0 70.625 57.344 128 128 128s128-57.375 128-128c0-47.25-25.844-88.062-64-110.25V491.47C276.156 580.5 392.375 640 512 640c6.375 0 11.625-.438 17.375-.625C551.5 677.812 592.5 704 640 704c70.625 0 128-57.375 128-128 0-70.656-57.375-128-128-128zM128 896c-35.312 0-64-28.625-64-64 0-35.312 28.688-64 64-64 35.406 0 64 28.688 64 64 0 35.375-28.594 64-64 64zm0-640c-35.312 0-64-28.594-64-64s28.688-64 64-64c35.406 0 64 28.594 64 64s-28.594 64-64 64zm512 384c-35.312 0-64-28.625-64-64 0-35.406 28.688-64 64-64 35.375 0 64 28.594 64 64 0 35.375-28.625 64-64 64z"/></svg><svg viewBox="0 0 768 1024" id="octicon-git-pull-request"><path d="M704 722V320s-96-192-192-192h-64V0L256 192l192 192V256h64s64 32 64 64v402c-38 22-64 63-64 110 0 71 57 128 128 128s128-57 128-128c0-47-26-88-64-110zm-64 174c-35 0-64-29-64-64s29-64 64-64 64 29 64 64-29 64-64 64zM128 64C57 64 0 121 0 192c0 47 26 88 64 110v419C26 743 0 784 0 831c0 71 57 128 128 128s128-57 128-128c0-47-26-88-64-110V302c38-22 64-63 64-110 0-71-57-128-128-128zm0 832c-35 0-64-29-64-64s29-64 64-64 64 29 64 64-29 64-64 64zm0-640c-35 0-64-29-64-64s29-64 64-64 64 29 64 64-29 64-64 64z"/></svg><svg viewBox="0 0 1024 1024" id="octicon-globe"><path d="M512 128c-212.077 0-384 171.923-384 384s171.923 384 384 384c25.953 0 51.303-2.582 75.812-7.49-9.88-4.725-10.957-40.174-1.188-60.385 10.875-22.5 45-79.5 11.25-98.625s-24.375-27.75-45-49.875-12.19-25.45-13.5-31.125c-4.5-19.5 19.875-48.75 21-51.75s1.125-14.25.75-17.625S545.75 566.75 542 566.375s-5.625 6-10.875 6.375-28.125-13.875-33-17.625-7.125-12.75-13.875-19.5-7.5-1.5-18-5.625-44.25-16.5-70.125-27-28.125-25.22-28.5-35.625-15.75-25.5-22.96-36.375c-7.21-10.875-8.54-25.875-11.165-22.5s13.5 42.75 10.875 43.875-8.25-10.875-15.75-20.625 7.875-4.5-16.125-51.75 7.5-71.344 9-96 20.25 9 10.5-6.75.75-48.75-6.75-60.75S275 230 275 230c1.125-11.625 37.5-31.5 63.75-49.875s42.28-4.125 63.375 2.625 22.5 4.5 15.375-2.25 3-10.125 19.5-7.5 21 22.5 46.125 20.625 2.625 4.875 6 11.25-3.75 5.625-20.25 16.875.375 11.25 29.625 32.625 20.25-14.25 17.25-30S537.125 221 537.125 221c18 12 14.674.66 27.8 4.785s48.7 34.215 48.7 34.215c-44.625 24.375-16.5 27-9 32.625s-15.375 16.5-15.375 16.5c-9.375-9.375-10.875.375-16.875 3.75s-.375 12-.375 12c-31.03 4.875-24 37.5-23.625 45.375s-19.875 19.875-25.125 31.125S536.75 437 527 438.5s-19.5-36.75-72-22.5c-15.828 4.297-51 22.5-32.25 59.625s49.875-10.5 60.375-5.25-3 28.875-.75 29.25 29.625 1.03 31.125 33 41.625 29.25 50.25 30 37.5-23.625 41.625-24.75S626 522.875 662 543.5s54.375 17.625 66.75 26.25 3.75 25.875 15.375 31.5 58.125-1.875 69.75 17.25-48 115.125-66.75 125.625S719.75 778.625 701 794s-45 34.406-69.75 49.125c-21.908 13.027-25.85 36.365-35.61 43.732C767.497 848.68 896 695.35 896 512c0-212.077-171.923-384-384-384zm90 360.375c-5.25 1.5-16.125 11.25-42.75-4.5s-45-12.75-47.25-15.375c0 0-2.25-6.375 9.375-7.5 23.87-2.31 54 22.125 60.75 22.5s10.125-6.75 22.125-2.883c12 3.863 3 6.258-2.25 7.758zM476.375 166.25c-2.615-1.902 2.166-4.092 5.016-7.875 1.646-2.186.426-5.815 2.485-7.875 5.625-5.625 33.375-13.5 27.95 1.875-5.425 15.375-31.325 16.875-35.45 13.875zM543.5 215c-9.375-.375-31.443-2.707-27.375-6.75 15.844-15.75-6-20.25-19.5-21.375S477.5 178.25 484.25 177.5s33.75.375 38.25 4.125 28.875 13.5 30.375 20.625 0 13.125-9.375 12.75zm81.375-2.625c-7.5 6-45.24-21.53-52.5-27.75-31.5-27-48.375-18-54.99-22.5-6.617-4.5-4.26-10.5 5.865-19.5s38.625 3 55.125 4.875 35.625 14.625 36 29.78c.375 15.156 18 29.095 10.5 35.095z"/></svg><svg viewBox="0 0 1024 1024" id="octicon-graph"><path d="M704 256H512v640h192V256zm256 192H768v448h192V448zM64 960V832h64v-64H64V640h64v-64H64V448h64v-64H64V256h64v-64H64V64h64V0H0v1024h1024v-64H64zm384-384H256v320h192V576z"/></svg><svg viewBox="0 0 768.199 1024" id="octicon-heart"><path d="M384 864c399-314 384-425 384-512s-72-192-192-192-192 128-192 128-72-128-192-128S0 265 0 352s-15 198 384 512z"/></svg><svg viewBox="0 0 896 1024" id="octicon-history"><path d="M448 64c-90.938 0-175.312 27.53-245.938 74.062L128 64v256h256l-88-88c45.438-24.688 96.688-40 152-40 176.75 0 320 143.22 320 320 0 176.75-143.25 320-320 320-176.78 0-320-143.25-320-320 0-45.562 9.78-88.78 27-128H64v-99.406C24.312 351.5 0 428.594 0 512c0 247.438 200.562 448 448 448s448-200.562 448-448S695.438 64 448 64zm-.97 767L512 768V576h128l64-64-64-64H512l-64-64-128 128 64 64v192l63.03 63z"/></svg><svg viewBox="0 0 1024 1024" id="octicon-home"><path d="M192 576l64 384h192V640h128v320h192l64-384-320-320-320 320zm640-192V128H704l.312 128.312L512 64 0 576h128l384-384 384 384h128L832 384z"/></svg><svg viewBox="0 0 639.875 1024" id="octicon-horizontal-rule"><path d="M63.938 448h128v128h64V192.062h-64V384h-128V192.062H0V576h63.938V448zm575.937 128V448h-63.938v128h63.938zm0-192V256.062h-63.938V384h63.938zm-191.937 0V256.062h128v-64h-192V576h64V448h128v-64h-128zM0 832h639.875V704H0v128z"/></svg><svg viewBox="0 0 768 1024" id="octicon-hourglass"><path d="M571 512c118-85 197-240 197-384C768 57 596 0 384 0S0 57 0 128c0 144 80 299 197 384C79 597 0 752 0 896c0 71 172 128 384 128s384-57 384-128c0-144-80-299-197-384zM384 64c141 0 256 29 256 64s-115 64-256 64-256-29-256-64 115-64 256-64zm-64 706c-154 7-238 40-253 82 16-114 75-189 141-251 73-68 112-60 112-103v273zM215 418C145 363 93 288 73 203c70 32 183 53 311 53s241-21 311-53c-20 85-72 160-142 215-24-17-70-34-169-34s-145 17-169 34zm233 352V497c0 43 39 35 112 103 66 62 125 138 141 251-14-41-99-75-253-82z"/></svg><svg viewBox="0 0 1024 1024" id="octicon-hubot"><path d="M512 64C229 64 0 293 0 576v256s64 128 128 128h768s128-64 128-128V576c0-283-229-512-512-512zm96 768H416c-18 0-32-14-32-32s14-32 32-32h192c18 0 32 14 32 32s-14 32-32 32zm288-128c0 32-32 64-64 64H704c0-32-32-64-64-64H384s-64 32-64 64H192s-64-32-64-64V344c78-129 220-216 384-216s306 87 384 216v360zM768 320H256s-64 32-64 64v128s32 64 64 64h512s64-32 64-64V384s-32-64-64-64zm0 128l-64 64H576l-64-64-64 64H320l-64-64v-64h64l64 64 64-64h128l64 64 64-64h64v64z"/></svg><svg viewBox="0 0 768 1024" id="octicon-inbox"><path d="M704 192H64L0 576v256h768V576l-64-384zM576 576l-64 128H256l-64-128H79l49-320h512l49 320H576z"/></svg><svg viewBox="0 0 896 1024" id="octicon-info"><path d="M448 384c35 0 64-29 64-64s-29-64-64-64-64 29-64 64 29 64 64 64zm0-320C201 64 0 265 0 512s201 448 448 448 448-201 448-448S695 64 448 64zm0 768c-177 0-320-143-320-320s143-320 320-320 320 143 320 320-143 320-320 320zm64-320c0-32-32-64-64-64h-64s-64 32-64 64h64v192s32 64 64 64h64s64-32 64-64h-64V512z"/></svg><svg viewBox="0 0 1024 1024" id="octicon-issue-closed"><path d="M704 316.03l-96 96L768 576l256-256-96-96-158.75 158.78L704 316.03zM512 832c-176.78 0-320-143.25-320-320 0-176.78 143.22-320 320-320 88.375 0 168.375 35.844 226.25 93.75l90.562-90.5C747.75 114.125 635.75 64 512 64 264.562 64 64 264.562 64 512s200.562 448 448 448 448-200.562 448-448L759.75 712.25c8.938-11-75 119.75-247.75 119.75zm64-576H448v320h128V256zM448 768h128V640H448v128z"/></svg><svg viewBox="0 0 896 1024" id="octicon-issue-opened"><path d="M448 64C200.562 64 0 264.562 0 512s200.562 448 448 448 448-200.562 448-448S695.438 64 448 64zm0 768c-176.78 0-320-143.25-320-320 0-176.78 143.22-320 320-320 176.75 0 320 143.22 320 320 0 176.75-143.25 320-320 320zm-64-64h128V640H384v128zm0-192h128V256H384v320z"/></svg><svg viewBox="0 0 896 1024" id="octicon-issue-reopened"><path d="M639.125 767.25C585.75 807.375 520 832 448 832c-176.78 0-320-143.25-320-320 0-45.562 9.78-88.78 27-128H64v-99.47C24.312 351.44 0 428.595 0 512c0 247.438 200.562 448 448 448 107.375 0 204.5-39.312 281.75-102.25L768 896V704H576l63.125 63.25zM384 768h128V640H384v128zm128-512H384v320h128V256zm384 256c0-247.438-200.562-448-448-448-107.406 0-204.53 39.312-281.656 102.344L128 128v192h192l-63.156-63.156C310.28 216.688 376 192 448 192c176.75 0 320 143.22 320 320 0 45.562-9.75 88.75-27 128h91v99.5c39.688-66.938 64-144 64-227.5z"/></svg><svg viewBox="0 0 896 1024" id="octicon-jersey"><path d="M704 0H512c0 32-33 64-97 64s-95-32-95-64H128c0 128-2 384-128 384 0 0-1 544-1 576s32 64 64 64h704s64-32 64-64V384C705 384 703 128 703 0zM95 960c-16 0-31-10-31-32V448c119-64 128-192 128-384h64c0 96 32 191 160 192s160-96 160-192h64c0 186 32 276 64 339v557H95zm385-576l-32 32v320l32 32h128l32-32V416l-32-32H480zm96 320h-64V448h64v256zM224 384l-32 32v320l32 32h128l32-32V416l-32-32H224zm96 320h-64V448h64v256z"/></svg><svg viewBox="0 0 768 1024" id="octicon-jump-down"><path d="M767.75 192H.25L384 575.75 767.75 192zM0 704v128h768V704H0z"/></svg><svg viewBox="0 0 640 1024" id="octicon-jump-left"><path d="M256.25 512L640 895.75v-767.5L256.25 512zM0 896h128V128H0v768z"/></svg><svg viewBox="0 0 640 1024" id="octicon-jump-right"><path d="M0 895.75L383.75 512 0 128.188V895.75zM512 128v768h128V128H512z"/></svg><svg viewBox="0 0 768 1024" id="octicon-jump-up"><path d="M.188 832h767.5L384 448.25.188 832zM0 192v128h768V192H0z"/></svg><svg viewBox="0 0 896.9 1024" id="octicon-key"><path d="M640.9 63.9c-141.4 0-256 114.6-256 256 0 19.6 2.2 38.6 6.4 56.9L0 768v64l64 64h128l64-64v-64h64v-64h64v-64h128l70.8-70.8c18.7 4.3 38.1 6.6 58.1 6.6 141.4 0 256-114.6 256-256S782.2 63.9 640.9 63.9zM384 512L64 832v-64l320-320v64zm320-192c-35.3 0-64-28.7-64-64s28.7-64 64-64 64 28.7 64 64-28.7 64-64 64z"/></svg><svg viewBox="0 0 1024 1024" id="octicon-keyboard"><path d="M640 576h64V448h-64v128zm128-320h-64v128h64V256zm-128 0h-64v128h64V256zM512 576h64V448h-64v128zM384 768h320V640H384v128zm384-192h128V256h-64v192h-64v128zM256 768h64V640h-64v128zm512 0h128V640H768v128zM512 256h-64v128h64V256zM192 448h-64v128h64V448zm0 192h-64v128h64V640zM0 128v768h1024V128H0zm960 704H64V192h896v640zM384 576h64V448h-64v128zM256 256H128v128h128V256zm128 0h-64v128h64V256zM256 576h64V448h-64v128z"/></svg><svg viewBox="0 0 1024 1024" id="octicon-law"><path d="M514 192c34-1 61-28 62-62 1-37-29-67-66-66-34 1-61 28-62 62-1 37 29 67 66 66zm464 384h-18L833 330c18-2 36-9 52-16 24-11 29-43 11-62l-1-1c-11-11-28-15-43-8-14 6-34 13-53 13-56 0-81-64-287-64s-231 64-287 64c-20 0-39-6-53-13-15-6-32-3-43 8l-1 1c-18 19-13 50 11 62 16 8 34 14 52 16L64 576H46c-8 0-14 7-13 15 11 64 92 113 191 113s180-49 191-113c1-8-5-15-13-15h-18L257 331c83-7 127-49 191-49v486c-35 0-64 29-64 64h-71c-28 0-57 29-57 64h512c0-35-29-64-71-64h-57c0-35-29-64-64-64V282c64 0 108 42 191 49L640 576h-18c-8 0-14 7-13 15 11 64 92 113 191 113s180-49 191-113c1-8-5-15-13-15zm-658 0H128l96-180 96 180zm384 0l96-180 96 180H704z"/></svg><svg viewBox="0 0 1024 1024" id="octicon-light-bulb"><path d="M512 64c-176.73 0-320 143.27-320 320 0 104.69 50.278 197.633 128 256.015V832c0 35.346 28.653 64 64 64 0 35.346 28.653 64 64 64h128c35.347 0 64-28.654 64-64 35.347 0 64-28.654 64-64V640.015C781.722 581.633 832 488.69 832 384c0-176.73-143.27-320-320-320zm128 736c0 17.673-14.326 32-32 32H416c-17.674 0-32-14.327-32-32v-32h256v32zm64-246.693c-33.234 33.03-64 42.39-64 124.04V704h-64V576l128-128v-64l-64-64-64 64-64-64-64 64-64-64-64 64v64l128 128v128h-64v-26.652c0-81.652-30.766-91.01-64-124.04-39.823-45.128-64-104.39-64-169.308 0-141.385 114.615-256 256-256s256 114.615 256 256c0 64.918-24.177 124.18-64 169.307zM512 576L384 448v-64l64 64 64-64 64 64 64-64v64L512 576z"/></svg><svg viewBox="0 0 1024 1024" id="octicon-link"><path d="M768 256H630c48 32 93 89 107 128h30c65 0 128 64 128 128s-65 128-128 128H575c-63 0-128-64-128-128 0-23 7-45 18-64H328c-5 21-8 42-8 64 0 128 127 256 255 256h193s256-128 256-256-128-256-256-256zM287 640h-30c-65 0-128-64-128-128s65-128 128-128h192c63 0 128 64 128 128 0 23-7 45-18 64h137c5-21 8-42 8-64 0-128-127-256-255-256H256S0 384 0 512s128 256 256 256h138c-48-32-93-89-107-128z"/></svg><svg viewBox="0 0 768 1024" id="octicon-link-external"><path d="M640 768H128V257.906L256 256V128H0v768h768V576H640v192zM384 128l128 128-192 192 128 128 192-192 128 128V128H384z"/></svg><svg viewBox="0 0 768 1024" id="octicon-list-ordered"><path d="M320 576h448V448H320v128zm0 256h448V704H320v128zm0-640v128h448V192H320zM79 448h78V192h-36l-85 23v50l43-2v185zm110 206c0-36-12-78-96-78-33 0-64 6-83 16l1 66c21-10 42-15 67-15s32 11 32 28c0 26-30 58-110 112v50h192v-67l-91 2c49-30 87-66 87-113l1-1z"/></svg><svg viewBox="0 0 768 1024" id="octicon-list-unordered"><path d="M0 576h128V448H0v128zm0-256h128V192H0v128zm0 512h128V704H0v128zm256-256h512V448H256v128zm0-256h512V192H256v128zm0 512h512V704H256v128z"/></svg><svg viewBox="0 0 640 1024" id="octicon-location"><path d="M320 0C143 0 0 143 0 320s160 416 320 704c160-288 320-527 320-704S497 0 320 0zm0 448c-71 0-128-57-128-128s57-128 128-128 128 57 128 128-57 128-128 128z"/></svg><svg viewBox="0 0 768 1024" id="octicon-lock"><path d="M704 448h-64V256S512 0 384 0 128 128 128 256v192H64S0 480 0 512v448s32 64 64 64h640s64-32 64-64V512s-32-64-64-64zM512 576H128v64h384v64H128v64h384v64H128v64h384v64H64V512h448v64zm0-128H256V256s64-128 128-128 128 64 128 128v192z"/></svg><svg viewBox="0 0 2856.857 1024" id="octicon-logo-github"><path d="M552.73 332.135H311.557c-6.205 0-11.25 5.045-11.25 11.297V461.32c0 6.25 5.045 11.27 11.25 11.27h94.11v146.543s-21.146 7.057-79.497 7.057c-68.914 0-165.156-25.244-165.156-236.795 0-211.642 100.197-239.49 194.307-239.49 81.466 0 116.515 14.303 138.87 21.24 7.01 2.203 13.404-4.83 13.404-11.105l26.95-113.91c0-2.912-1.042-6.417-4.263-8.785C521.187 30.952 465.866 0 326.17 0 165.133 0 0 68.487 0 397.757 0 726.98 189.05 776 348.38 776c131.884 0 212.022-56.314 212.022-56.314 3.268-1.8 3.6-6.395 3.6-8.48V343.433c-.047-6.205-5.115-11.297-11.272-11.297zm1219.65-304h-135.694c-6.252 0-11.27 5.043-11.27 11.295v262.393h-211.62V39.43c0-6.252-5.068-11.296-11.178-11.296H1266.78c-6.11 0-11.084 5.044-11.084 11.296v710.473c0 6.3 5.02 11.32 11.084 11.32h135.838c6.203 0 11.178-5.068 11.178-11.32V446.067h211.62l-.476 303.883c0 6.3 5.02 11.272 11.084 11.272h135.885c6.25 0 11.13-5.068 11.13-11.272l.473-710.52c.094-6.252-4.974-11.296-11.132-11.296zM714.95 44.236c-48.358 0-87.575 39.572-87.575 88.403 0 48.855 39.217 88.428 87.574 88.428s87.526-39.572 87.526-88.428c0-48.83-39.17-88.403-87.527-88.403zm77.91 227.89c0-6.206-5.02-11.345-11.13-11.345H646.32c-6.348 0-11.746 6.394-11.746 12.67V743.32c0 13.734 8.572 17.902 19.703 17.902h121.96c13.31 0 16.813-6.536 16.813-18.188-.094-25.197-.094-123.808-.094-142.942-.095-18.187-.095-327.966-.095-327.966zm1505.113-10.28h-134.7c-6.16 0-11.085 5.093-11.085 11.345v348.31s-34.244 25.197-82.934 25.197c-48.547 0-61.525-22.025-61.525-69.72V273.145c0-6.252-5.07-11.345-11.132-11.345h-136.643c-6.252 0-11.178 5.093-11.178 11.345v326.807c0 141.284 78.766 175.906 186.99 175.906 88.854 0 160.61-49.115 160.61-49.115s3.362 25.766 5.067 28.844c1.422 3.078 5.447 6.158 9.852 6.158h86.58c6.158 0 11.178-5.07 11.178-11.32l.38-477.28c-.284-6.206-5.305-11.297-11.46-11.297zm368.96-16.008c-76.54 0-128.593 34.147-128.593 34.147V39.43c0-6.252-5.068-11.296-11.13-11.296h-136.265c-6.11 0-11.13 5.044-11.13 11.296l-.38 710.52c0 6.3 5.068 11.273 11.225 11.273h94.87c4.214 0 7.388-2.18 9.804-5.968 2.37-3.837 5.73-32.775 5.73-32.775s55.557 52.763 161.035 52.763c123.806 0 194.757-62.804 194.757-281.906.002-218.82-113.386-247.498-189.925-247.498zm-53.142 400.385c-46.7-1.42-78.34-22.64-78.34-22.64v-225.07s31.308-19.206 69.673-22.593c48.547-4.31 95.438 10.326 95.438 126.13-.238 122.007-21.36 146.114-86.77 144.173zm-1428.665-2.558c-5.97 0-21.22 2.368-36.85 2.368-49.92 0-66.97-23.256-66.97-53.33v-199.85h101.925c6.252 0 11.178-5.045 11.178-11.344V272.03c.094-6.298-4.926-11.343-11.178-11.343h-101.926l-.143-134.535c0-5.092-2.698-7.625-8.57-7.625H933.86c-5.35 0-8.335 2.39-8.335 7.578V265.14s-69.576 16.79-74.266 18.188c-4.642 1.326-8.052 5.684-8.052 10.822v87.408c0 6.252 5.068 11.344 11.178 11.344h71.14v210.222c0 156.11 109.552 171.455 183.438 171.455 33.723 0 74.076-10.99 80.848-13.357 4.074-1.42 6.395-5.637 6.395-10.136l.047-96.1c0-6.3-5.256-11.415-11.13-11.32z"/></svg><svg viewBox="0 0 896 1024" id="octicon-mail"><path d="M0 192v640h896V192H0zm768 64L448 520 128 256h640zM64 320l252.03 191.625L64 704V320zm64 448l254-206.25L448 612l65.875-50.125L768 768H128zm704-64L579.625 511.938 832 320v384z"/></svg><svg viewBox="0 0 896 1024" id="octicon-mail-read"><path d="M576 384H256v64h320v-64zM384 256H256v64h128v-64zm384-27.47V128H627.188L448 0 268.812 128H128v100.53L0 320v640h896V320l-128-91.47zM192 192h512v244.812L448 648 192 436.812V192zM64 448l252.03 191.625L64 832V448zm64 448l254-206.25L448 740l65.875-50.125L768 896H128zm704-64L579.625 639.938 832 448v384z"/></svg><svg viewBox="0 0 768 1024" id="octicon-mail-reply"><path d="M384 160L0 448l384 288V544c111 0 329 61 384 280 0-291-196-451-384-472V160z"/></svg><svg viewBox="0 0 1024 1024" id="octicon-mark-github"><path d="M512 0C229.252 0 0 229.252 0 512c0 226.25 146.688 418.126 350.155 485.813 25.593 4.686 34.937-11.125 34.937-24.626 0-12.188-.47-52.562-.718-95.314-128.708 23.46-161.707-31.54-172.47-60.373-5.524-14.81-30.406-60.25-52.397-72.263-17.988-9.828-43.26-33.237-.917-33.735 40.434-.476 69.348 37.308 78.47 52.75 45.94 77.75 119.877 55.627 149 42.5 4.654-33 17.902-55.627 32.5-68.373-113.656-12.94-233.22-56.876-233.22-253.064 0-55.94 19.97-101.56 52.66-137.404-5.22-13-22.845-65.095 5.062-135.563 0 0 42.937-13.75 140.81 52.5 40.812-11.406 84.595-17.03 128.125-17.22 43.5.188 87.314 5.874 128.188 17.28 97.69-66.31 140.686-52.5 140.686-52.5 28 70.53 10.376 122.563 5.125 135.498 32.81 35.844 52.626 81.468 52.626 137.404 0 196.686-119.75 240-233.812 252.686 18.44 15.876 34.748 47 34.748 94.748 0 68.437-.686 123.627-.686 140.5 0 13.626 9.312 29.562 35.25 24.563C877.436 929.997 1024 738.125 1024 512 1024 229.252 794.748 0 512 0z"/></svg><svg viewBox="0 0 1024 1024" id="octicon-markdown"><path d="M950.154 192H73.846C33.126 192 0 225.127 0 265.846v492.308C0 798.874 33.127 832 73.846 832h876.308c40.72 0 73.846-33.125 73.846-73.846V265.846c0-40.72-33.125-73.846-73.846-73.846zM576 703.875L448 704V512l-96 123.077L256 512v192H128V320h128l96 128 96-128 128-.125v384zm191.09 32L608 512h96V320h128v192h96L767.09 735.875z"/></svg><svg viewBox="0 0 1024 1024" id="octicon-megaphone"><path d="M832 32c-130 0-124 130-704 128C57.344 160 0 274.625 0 416s57.344 256 128 256c22.78 0 43.188.5 64.188.875L256 960l192 32 64-96-45.125-203.125C709.375 729.125 733.75 800 832 800c106 0 192-172 192-384 0-212.03-86-384-192-384zM197 482.938c-39.188-1.47-82.188-2.25-127.562-2.625C66 460.593 64 438.906 64 416c0-88.375 28.688-192 64-192 39.03.125 75-.438 109-1.406-27.344 46.968-45 115.718-45 193.406 0 23.312 2.062 45.438 5 66.938zm64.312 3C258.125 463.688 256 440.375 256 416c0-79.5 18.438-149.5 46.906-196.22 155.156-8.31 251.906-28.468 319.03-50.187C593.627 236.47 576 321.656 576 416c0 40 3.875 78 9.5 114.312-72.156-18.687-172.688-35.718-324.188-44.374zM832 704c-12.125 0-23.688-5.062-34.812-12.125-15.25-67.312-83.438-418.344 117.438-494.188C942.126 250.5 960 328.187 960 416c0 159-57.375 288-128 288z"/></svg><svg viewBox="0 0 832 1024" id="octicon-mention"><path d="M466.697 99.1C238.66 71.103 31.1 233.266 3.102 461.303c-28 228.038 134.163 435.598 362.2 463.597 71.43 8.755 145.115-.914 213.325-29.947l-.016-.032c24.405-10.356 35.79-38.537 25.432-62.938-10.36-24.403-38.538-35.787-62.94-25.43v-.004c-52.473 22.34-109.15 29.8-164.1 23.067-175.414-21.538-300.154-181.2-278.617-356.613 21.538-175.413 181.2-300.154 356.613-278.616 175.412 21.538 300.154 181.2 278.617 356.612-4.31 35.083-21.542 55.725-61.6 55.725-42.5 0-64-45.89-64-81.222V400c0-26.51-21.49-48-48-48-9.7 0-18.72 2.887-26.27 7.833-25.683-20.26-57.436-33.87-94.348-38.402C334.15 308.51 238.352 383.356 225.43 488.6 212.508 593.85 287.354 689.647 392.6 702.57c57.38 7.045 116.216-14.707 157.87-53.13 24.96 28.124 59.867 47.624 100.122 52.567 87.707 10.77 167.537-51.602 178.307-139.31C856.897 334.66 694.733 127.102 466.696 99.102zm44.588 424.6c-6.462 52.622-54.36 90.046-106.985 83.584-52.623-6.46-90.046-54.36-83.585-106.984 6.46-52.623 54.36-90.046 106.984-83.585 52.622 6.462 90.046 54.36 83.585 106.984z"/></svg><svg viewBox="0 0 768 1024" id="octicon-microscope"><path d="M617 896c86.312-18.75 151-100 151-192 0-58.438-26.625-110.125-67.875-145.375C702.5 543.375 704 527.875 704 512c0-104.844-49.875-197.875-128-256l64-64v-64l64-64-64-64-64 64h-64L256 320l-128 64v128l64 64h128l64-128 96-96c55.5 33.406 96 90.438 96 160-106.062 0-192 85.938-192 192H0v64h192c19.125 14.25 42.062 22.125 64 32v96H128L0 1024h768L640 896h-23zM512 704c0-35.375 28.625-64 64-64s64 28.625 64 64c0 35.312-28.625 64-64 64s-64-28.688-64-64z"/></svg><svg viewBox="0 0 832 1024" id="octicon-milestone"><path d="M704 192H0v256h704l128-128-128-128zM448 384H320V256h128v128zm0-384H320v128h128V0zM320 1024h128V512H320v512z"/></svg><svg viewBox="0 0 1024 1024" id="octicon-mirror"><path d="M320 320L128 512l192 192V576h384v128l192-192-192-192v128H320V320zM512 0L0 320v704l512-256 512 256V320L512 0zm448 896L576 704v-64H448v64L64 896V384l384-256v256h128V128l384 256v512z"/></svg><svg viewBox="0 0 1024 1024" id="octicon-mortar-board"><path d="M501 588l-245-76v160s115 96 256 96 256-32 256-96V512l-245 76c-7 2-15 2-23 0h1zm18-409c-4-1-9-1-13 0L17 331c-21 7-21 36 0 43l111 35v113c-19 11-32 32-32 55 0 12 3 23 9 32-5 9-9 20-9 32v165c0 35 128 35 128 0V641c0-12-3-23-9-32 5-9 9-20 9-32 0-24-13-44-32-55v-93l313 98c4 1 9 1 13 0l489-152c21-7 21-36 0-43L519 179zm-6 205c-35 0-64-14-64-32s29-32 64-32 64 14 64 32-29 32-64 32z"/></svg><svg viewBox="0 0 640 1024" id="octicon-move-down"><path d="M640 320H448V0H192v320H0l320 384 320-384zM0 1024h640V832H0v192z"/></svg><svg viewBox="0 0 1024 1024" id="octicon-move-left"><path d="M0 832h192V192H0v640zm704-448V192L320 512l384 320V640h320V384H704z"/></svg><svg viewBox="0 0 1024 1024" id="octicon-move-right"><path d="M832 192v640h192V192H832zM320 384H0v256h320v192l384-320-384-320v192z"/></svg><svg viewBox="0 0 640 1024" id="octicon-move-up"><path d="M0 704h192v320h256V704h192L320 320 0 704zM0 0v192h640V0H0z"/></svg><svg viewBox="0 0 896 1024" id="octicon-mute"><path d="M128 384H0v256h128l256 192h64V192h-64L128 384zm736 32l-64-64-96 96-96-96-63 63.5 95 96.5-96 96 64 64 96-96 96 96 64-64-96-96 96-96z"/></svg><svg viewBox="0 0 1024 1024" id="octicon-no-newline"><path d="M896 320v128H768V320L576 512l192 192V576h192s64-.375 64-64V320H896zm-672-32C100.28 288 0 388.28 0 512c0 123.75 100.28 224 224 224s224-100.25 224-224c0-123.72-100.28-224-224-224zM96 512c0-70.656 57.344-128 128-128 18.75 0 36.406 4.22 52.47 11.53L107.53 564.5C100.22 548.375 96 530.75 96 512zm128 128c-18.75 0-36.406-4.25-52.47-11.5l168.94-168.97C347.78 475.595 352 493.25 352 512c0 70.625-57.344 128-128 128z"/></svg><svg viewBox="0 0 1024 1024" id="octicon-octoface"><path d="M940.812 277.688c8.25-20.22 35.375-101.75-8.562-211.906 0 0-67.375-21.312-219.875 82.906C648.5 131.125 579.875 128.5 512 128.5c-67.906 0-136.438 2.625-200.5 20.25C159.03 44.47 91.72 65.78 91.72 65.78 47.81 176 74.937 257.47 83.187 277.69 31.5 333.562 0 404.875 0 492.344 0 821.562 213.25 896 510.844 896 808.562 896 1024 821.562 1024 492.344c0-87.47-31.5-158.782-83.188-214.656zM512 833c-211.406 0-382.78-9.875-382.78-214.688 0-48.938 24.06-94.595 65.343-132.312 68.75-62.97 185.28-29.688 317.438-29.688 132.25 0 248.626-33.28 317.44 29.625 41.31 37.78 65.437 83.312 65.437 132.312C894.875 823.124 723.375 833 512 833zM351.156 512.438c-42.47 0-76.906 51.062-76.906 114.188s34.438 114.312 76.906 114.312c42.375 0 76.812-51.188 76.812-114.312s-34.437-114.188-76.812-114.188zm321.72 0C630.5 512.438 596 563.5 596 626.625s34.5 114.312 76.875 114.312 76.812-51.188 76.812-114.312c.063-63.125-34.375-114.187-76.812-114.187z"/></svg><svg viewBox="0 0 896 1024" id="octicon-organization"><path d="M768 384H128C57.344 384 0 441.344 0 512v64c0 47.25 25.844 88.062 64 110.25V896h256v128h256V896h256V686.25c38.125-22.188 64-62.938 64-110.25v-64c0-70.656-57.375-128-128-128zM256 832H128V576H64v-64c0-35.312 28.688-64 64-64h81.72c-11 18.875-17.72 40.562-17.72 64v128c0 47.25 25.844 88.062 64 110.25V832zm320-128V576h-64v384H384V576h-64v128c-35.312 0-64-28.625-64-64V512c0-35.312 28.688-64 64-64h256c35.375 0 64 28.688 64 64v128c0 35.375-28.625 64-64 64zm256-128h-64v256H640v-81.75c38.125-22.188 64-62.938 64-110.25V512c0-23.438-6.75-45.125-17.75-64H768c35.375 0 64 28.688 64 64v64zM303.688 317.375C338.875 357.875 390.156 384 448 384c57.875 0 109.125-26.125 144.312-66.625C614.125 356.938 655.688 384 704 384c70.625 0 128-57.344 128-128s-57.375-128-128-128c-25.625 0-49.375 7.688-69.375 20.688C614.875 63.562 539.062 0 448 0S281.094 63.562 261.375 148.688C241.345 135.688 217.595 128 192 128c-70.656 0-128 57.344-128 128s57.344 128 128 128c48.312 0 89.844-27.062 111.688-66.625zM704 192c35.375 0 64 28.594 64 64s-28.625 64-64 64c-35.312 0-64-28.594-64-64s28.688-64 64-64zM448 64c70.625 0 128 57.344 128 128s-57.375 128-128 128c-70.656 0-128-57.344-128-128S377.344 64 448 64zM192 320c-35.312 0-64-28.594-64-64s28.688-64 64-64c35.406 0 64 28.594 64 64s-28.594 64-64 64z"/></svg><svg viewBox="0 0 1024 1024" id="octicon-package"><path d="M480 64L0 192v576l480 128 480-128V192L480 64zM63.875 720.934L63.5 288l384.498 102.533v432.833L63.876 720.934zM63.5 224l160.254-42.734 416.246 111v.134l-160 42.667L63.5 224zm832.625 496.934L512 823.366l.002-432.833L640 356.4v156l128-34.135V322.267L896.5 288l-.375 432.934zM768 258.267v-.125L351.734 147.138 480 112.934 896.5 224 768 258.267z"/></svg><svg viewBox="0 0 768 1024" id="octicon-paintcan"><path d="M384 0C171.923 0 0 171.923 0 384v64c0 35.346 28.654 64 64 64v320c0 70.692 143.27 128 320 128s320-57.308 320-128V512c35.346 0 64-28.654 64-64v-64C768 171.923 596.077 0 384 0zm192 640v32c0 17.673-14.327 32-32 32s-32-14.327-32-32v-32c0-17.673-14.327-32-32-32s-32 14.327-32 32v160c0 17.673-14.327 32-32 32s-32-14.327-32-32V672c0-17.673-14.327-32-32-32s-32 14.327-32 32v32c0 35.346-28.654 64-64 64s-64-28.654-64-64v-64c-35.346 0-64-28.654-64-64V460.807C186.382 491.892 279.318 512 384 512s197.618-20.108 256-51.193V576c0 35.346-28.654 64-64 64zM384 448c-107.433 0-199.393-26.474-237.372-64 37.98-37.526 129.94-64 237.372-64s199.393 26.474 237.372 64c-37.98 37.526-129.94 64-237.372 64zm0-192c-176.62 0-319.816 57.236-319.996 127.867 0 0-.002 0-.003-.002C64.076 207.195 207.315 64 384 64c176.73 0 320 143.27 320 320 0-70.692-143.27-128-320-128z"/></svg><svg viewBox="0 0 896 1024" id="octicon-pencil"><path d="M704 64L576 192l192 192 128-128L704 64zM0 768l.688 192.562L192 960l512-512-192-192L0 768zm192 128H64V768h64v64h64v64z"/></svg><svg viewBox="0 0 512 1024" id="octicon-person"><path d="M448 192C448 86 362.062 0 256 0S64 86 64 192c0 106.062 85.938 192 192 192s192-85.938 192-192zM256 320c-70.656 0-128-57.344-128-128S185.344 64 256 64c70.625 0 128 57.344 128 128s-57.375 128-128 128zm128 64H128C57.344 384 0 441.344 0 512v128c0 70.625 57.344 128 128 128v256h256V768c70.625 0 128-57.375 128-128V512c0-70.656-57.375-128-128-128zm64 256c0 35.375-28.625 64-64 64V576h-64v384H192V576h-64v128c-35.312 0-64-28.625-64-64V512c0-35.312 28.688-64 64-64h256c35.375 0 64 28.688 64 64v128z"/></svg><svg viewBox="0 0 519.657 1024" id="octicon-pin"><path d="M196 704l64 320 64-320c-20 2-43 3-64 3s-44-1-64-3zm254-299c-33-17-62-59-62-85v-64c0-22 12-39 23-52 15-13 24-29 24-45 0-53-61-95-175-95S85 106 85 159c0 16 9 32 24 45 11 13 23 30 23 52v64c0 26-29 68-62 85-38 19-70 54-70 88 0 74 101 148 260 148s260-73 260-148c0-33-31-68-70-88z"/></svg><svg viewBox="0 0 768 1024" id="octicon-playback-fast-forward"><path d="M0 768l384-256L0 256v512zm768-256L384 256v512l384-256z"/></svg><svg viewBox="0 0 512 1024" id="octicon-playback-pause"><path d="M0 832h192V192H0v640zm320-640v640h192V192H320z"/></svg><svg viewBox="0 0 512 1024" id="octicon-playback-play"><path d="M0 192l512 320L0 832V192z"/></svg><svg viewBox="0 0 768 1024" id="octicon-playback-rewind"><path d="M384 512l384 256V256L384 512zM0 512l384 256V256L0 512z"/></svg><svg viewBox="0 0 1024 1024" id="octicon-plug"><path d="M1003.386 204.664l-.905-.905c-24.743-24.745-64.86-24.745-89.604 0l-45.707 45.706-90.51-90.51 45.706-45.707c24.744-24.745 24.744-64.862 0-89.606l-.905-.905c-24.743-24.745-64.86-24.745-89.604 0L683.883 70.71C621.76 29.554 537.237 36.34 482.503 91.074l-24.89 24.89c-109.012 109.01-121.95 277.692-38.855 400.892l-4.138 4.138c-62.392 62.392-62.484 163.493-.275 226 12.41 12.468 12.642 33.326.12 45.682-12.508 12.343-32.654 12.292-45.1-.153l-89.427-89.427c-62.637-62.638-164.63-63.747-227.3-1.14-62.54 62.478-62.56 163.828-.057 226.33l8.764 8.764c24.744 24.744 64.86 24.744 89.605 0l.904-.905c24.744-24.744 24.744-64.86 0-89.605l-8.292-8.292c-12.33-12.33-13.085-32.418-1.098-45.08 12.437-13.14 33.174-13.354 45.882-.646l89.328 89.328c62.92 62.92 165.504 63.814 228.08.553 61.794-62.468 61.65-163.16-.43-225.45-12.55-12.593-12.777-32.867-.207-45.438l4.15-4.15c123.2 83.094 291.882 70.157 400.893-38.855l24.89-24.89c54.734-54.735 61.52-139.258 20.362-201.382l47.973-47.973c24.744-24.74 24.744-64.858 0-89.6zm-113.59 293.704c-37.49 37.49-98.274 37.49-135.765 0L527.758 272.094c-37.49-37.49-37.49-98.274 0-135.765 29.556-29.557 73.585-35.805 109.27-18.76l-41.84 41.84c-24.744 24.743-24.744 64.86 0 89.603l.905.905c24.744 24.744 64.86 24.744 89.605 0l45.707-45.707 90.51 90.51-45.707 45.708c-24.744 24.744-24.744 64.86 0 89.605l.905.905c24.744 24.744 64.86 24.744 89.604 0l41.84-41.84c17.044 35.684 10.795 79.714-18.76 109.27z"/></svg><svg viewBox="0 0 640 1024" id="octicon-plus"><path d="M384 448V192H256v256H0v128h256v256h128V576h256V448H384z"/></svg><svg viewBox="0 0 768 1024" id="octicon-podium"><path d="M320 0c-32 0-64 32-64 64v64h-64L0 320v128h192l64 384-128 64v64h512v-64l-128-64 64-384h192V320L576 128H320V64h32s32-17 32-32-16-32-32-32h-32zm0 832l-53-320h118l-1 320h-64zM96 320l128-128h32v64h64v-64h224l128 128H96z"/></svg><svg viewBox="0 0 511.825 1024" id="octicon-primitive-dot"><path d="M-.088 512c0-141.5 114.5-256 256-256 141.438 0 256 114.5 256 256s-114.562 256-256 256c-141.5 0-256-114.5-256-256z"/></svg><svg viewBox="0 0 512 1024" id="octicon-primitive-square"><path d="M512 768H0V256h512v512z"/></svg><svg viewBox="0 0 896 1024" id="octicon-pulse"><path d="M736 511.938L563.188 345.594 422.406 544 352 102.406 152.438 511.938H0V640h230.406L288 524.812l57.594 345.562L576 544l102.375 96H896V511.938H736z"/></svg><svg viewBox="0 0 1024 1024" id="octicon-puzzle"><path d="M755.75 575.15c-13.95-9.96-28.52-16.59-43.47-19.92-8.84-1.69-18.06-2.33-27.57-1.81-8.99.5-17.56 1.68-25.69 3.52-6.1 1.69-12.22 3.89-18.35 6.59-18.18 8.02-33.89 18.12-46.79 30.33-12.22 12.9-22.32 28.62-30.34 46.79-2.7 6.12-4.9 12.24-6.59 18.34-1.84 8.14-3.03 16.7-3.52 25.69-.52 9.51.12 18.73 1.81 27.57 3.33 14.95 9.96 29.52 19.92 43.47 3.89 5.44 8.08 10.4 12.56 14.88 20.06 20.03 45.83 30.7 75.42 34.11 8.92 1.02 18.12 1.68 26.53 4.48 5.12 1.7 9.16 4.08 12.08 7.02 6.65 6.6 7.63 16.1 2.5 27.24-3.15 6.84-7.7 13.45-12.96 18.84l-2.79 2.86c-3.93 3.92-6.41 6.4-7.05 7.04-3.13 3.16-6.1 6.15-9.06 9.15l-2.96 2.92c-10.52 10.58-21.09 21.12-31.66 31.65-22.76 22.82-45.57 45.58-68.38 68.36-7.5 7.5-15 15-22.5 22.49-3.46 3.45-7.07 6.38-10.78 8.79-1.8 1.22-3.49 2.24-5.18 3.16-19.6 9.89-41.43 5.92-59.24-11.88-5.4-5.4-10.62-10.62-15.85-15.84-30.25-30.25-60.48-60.52-90.77-90.73-8.59-8.57-17.13-17.08-25.68-25.59-6.12-6.09-12.67-11.85-19.56-17.06-5.72-4.33-11.59-7.56-17.46-9.73-21.16-7.32-41.41-2.01-54.67 13.26-3.81 4.8-7 10.47-9.39 16.94-3.43 9.26-4.6 19.47-5.9 29.36-4.9 37.53-25.8 68.43-55.98 82.65-7.48 3.65-15.49 6.29-23.9 7.78-7.95 1.41-15.95 1.71-23.85 1.04-26.61-1.35-49.48-13.09-68.51-32.57-1.68-1.67-2.1-2.09-2.51-2.51-19.48-19.02-31.22-41.9-32.57-68.5-.68-7.9-.37-15.9 1.04-23.85 1.49-8.41 4.13-16.43 7.78-23.9 14.22-30.18 45.13-51.07 82.65-55.97 9.89-1.29 20.1-2.47 29.36-5.9 6.94-2.56 12.96-6.05 17.97-10.23 14.54-13.15 19.59-32.63 12.84-52.34-2.78-7.35-6-13.22-10.33-18.94-5.21-6.88-10.97-13.43-17.06-19.55-8.51-8.55-17.03-17.09-25.55-25.63-26.92-26.98-53.84-53.88-80.75-80.78l-10.03-10.03c-5.22-5.22-10.45-10.45-15.26-15.27-18.39-18.4-22.35-40.22-12.46-59.82.92-1.69 1.94-3.37 3.08-5.05 2.49-3.84 5.42-7.45 8.87-10.91 7.49-7.5 14.99-15 22.49-22.5 22.77-22.81 45.54-45.62 68.36-68.38 10.53-10.57 21.06-21.14 31.65-31.66l2.92-2.96c2.99-2.97 5.99-5.93 8.98-8.9.8-.81 3.28-3.29 7.2-7.22l2.86-2.79c5.39-5.26 12-9.8 18.84-12.96 11.14-5.13 20.63-4.15 27.24 2.5 2.94 2.92 5.32 6.96 7.02 12.08 2.79 8.41 3.45 17.61 4.48 26.53 3.41 29.59 14.08 55.35 34.11 75.41 4.49 4.48 9.44 8.67 14.88 12.56 13.95 9.96 28.52 16.59 43.47 19.92 8.84 1.69 18.06 2.33 27.57 1.81 8.99-.5 17.56-1.68 25.69-3.52 6.1-1.69 12.22-3.89 18.35-6.59 18.18-8.02 33.89-18.12 46.79-30.33 12.22-12.9 22.32-28.62 30.34-46.79 2.7-6.12 4.9-12.24 6.59-18.34 1.84-8.14 3.03-16.7 3.52-25.69.52-9.51-.12-18.73-1.81-27.57-3.33-14.95-9.96-29.52-19.92-43.47-3.89-5.44-8.08-10.4-12.56-14.88-20.06-20.03-45.83-30.7-75.42-34.11-8.92-1.02-18.12-1.68-26.53-4.48-5.12-1.7-9.16-4.08-12.08-7.02-6.65-6.6-7.63-16.1-2.5-27.24 3.15-6.84 7.7-13.45 12.96-18.84l2.79-2.86c3.93-3.92 6.41-6.4 7.05-7.04 3.13-3.16 6.1-6.15 9.06-9.15l2.96-2.92c10.52-10.58 21.09-21.12 31.66-31.65 22.76-22.82 45.57-45.58 68.38-68.35 7.5-7.5 15-15 22.5-22.49 3.46-3.45 7.07-6.38 10.78-8.79 1.8-1.22 3.49-2.24 5.18-3.16 19.6-9.89 41.43-5.92 59.24 11.88 5.4 5.4 10.62 10.62 15.85 15.84 30.25 30.25 60.48 60.52 90.77 90.73 8.59 8.57 17.13 17.08 25.68 25.59 6.12 6.09 12.67 11.85 19.56 17.06 5.72 4.33 11.59 7.56 17.46 9.73 21.16 7.32 41.41 2.01 54.67-13.26 3.81-4.8 7-10.47 9.39-16.94 3.43-9.26 4.6-19.47 5.9-29.36 4.9-37.53 25.8-68.43 55.98-82.65 7.48-3.65 15.49-6.28 23.9-7.78 7.95-1.41 15.95-1.71 23.85-1.04 26.61 1.35 49.48 13.09 68.51 32.57 1.68 1.67 2.1 2.09 2.51 2.51 19.48 19.02 31.22 41.9 32.57 68.5.68 7.9.37 15.9-1.04 23.85-1.49 8.41-4.13 16.43-7.78 23.9-14.22 30.18-45.13 51.07-82.65 55.97-9.89 1.29-20.1 2.47-29.36 5.9-6.94 2.56-12.96 6.05-17.97 10.23-14.54 13.15-19.59 32.63-12.84 52.34 2.78 7.35 6 13.22 10.33 18.94 5.21 6.88 10.97 13.43 17.06 19.55 8.51 8.55 17.03 17.09 25.55 25.63 30.26 30.33 60.54 60.56 90.78 90.81 5.22 5.22 10.45 10.45 15.26 15.27 18.39 18.4 22.35 40.22 12.46 59.82-.92 1.69-1.94 3.37-3.08 5.05-2.49 3.84-5.42 7.45-8.87 10.91-7.49 7.5-14.99 15-22.49 22.5-22.77 22.81-45.54 45.62-68.36 68.38-10.53 10.57-21.06 21.14-31.65 31.66l-2.92 2.96c-2.99 2.97-5.99 5.93-8.98 8.9-.8.81-3.28 3.29-7.2 7.22l-2.86 2.79c-5.39 5.26-12 9.8-18.84 12.96-11.14 5.13-20.63 4.15-27.24-2.5-2.94-2.92-5.32-6.96-7.02-12.08-2.79-8.41-3.45-17.61-4.48-26.53-3.41-29.59-14.08-55.35-34.11-75.41-4.48-4.49-9.44-8.69-14.88-12.57z"/></svg><svg viewBox="0 0 1024 1024" id="octicon-question"><path d="M448 768h128V640H448v128zm64-512c-96 0-192 96-192 192h128c0-32 32-64 64-64s64 32 64 64c0 64-128 64-128 128h128c64-22 128-64 128-160s-96-160-192-160zm0-256C229 0 0 229 0 512s229 512 512 512 512-229 512-512S795 0 512 0zm0 896c-212 0-384-172-384-384s172-384 384-384 384 172 384 384-172 384-384 384z"/></svg><svg viewBox="0 0 640 1024" id="octicon-quote"><path d="M0 512v256h256V512H128s0-128 128-128V256S0 256 0 512zm640-128V256s-256 0-256 256v256h256V512H512s0-128 128-128z"/></svg><svg viewBox="0 0 1024 1024" id="octicon-radio-tower"><path d="M306.838 390.74c15.868-16.307 15.868-42.732 0-59.038-20.52-21.116-30.643-48.417-30.705-76.124.062-27.77 10.183-55.04 30.705-76.186 15.868-16.337 15.868-42.764 0-59.07-7.934-8.183-18.272-12.274-28.706-12.274-10.37 0-20.804 4.03-28.738 12.213-36.266 37.298-54.633 86.434-54.57 135.318-.062 48.792 18.305 97.927 54.57 135.16 15.868 16.307 41.576 16.307 57.444 0zM149.093 33.14c-8.12-8.31-18.68-12.463-29.3-12.463-10.558 0-21.18 4.153-29.237 12.462C30.8 94.492.75 175.144.813 255.578c-.062 80.34 29.987 161.15 89.68 222.437 16.182 16.618 42.357 16.618 58.538 0 16.12-16.587 16.12-43.513 0-60.067-43.7-44.98-65.44-103.456-65.44-162.368s21.74-117.45 65.44-162.368c16.12-16.65 16.12-43.577.063-60.07zM513.03 359.847c57.352 0 103.957-46.574 103.957-103.956 0-57.38-46.605-103.954-103.956-103.954-57.38 0-103.955 46.573-103.955 103.955 0 57.383 46.575 103.957 103.956 103.957zm420.51-326.08c-16.182-16.618-42.356-16.618-58.476 0-16.18 16.587-16.18 43.513 0 60.068 43.668 44.918 65.41 103.456 65.41 162.368 0 58.85-21.806 117.387-65.474 162.306-16.117 16.617-16.117 43.574.062 60.067 8.06 8.31 18.616 12.463 29.237 12.463 10.557 0 21.177-4.154 29.235-12.463 59.726-61.287 89.774-142.096 89.65-222.437.128-80.278-29.92-161.087-89.646-222.373zM513.28 442.873c-26.488.062-53.04-6.466-77.09-19.43L235.057 959.59h95.21l54.818-63.973h255.89l53.978 63.973h95.272l-201.1-536.02c-23.74 12.775-49.73 19.303-75.844 19.303zm-.624 30.644L577.004 703.7H449.06l63.596-230.183zm-127.57 358.128l63.974-63.973h127.944l63.974 63.973H385.086zm332.108-710.603c-15.868 16.306-15.868 42.73 0 59.037 20.49 21.115 30.61 48.51 30.674 76.123-.062 27.77-10.183 55.102-30.674 76.187-15.868 16.336-15.868 42.763 0 59.068 7.87 8.184 18.242 12.213 28.737 12.213 10.31 0 20.742-4.028 28.676-12.212 36.298-37.234 54.665-86.433 54.54-135.255.125-48.792-18.18-97.927-54.54-135.16-15.805-16.307-41.544-16.307-57.412 0z"/></svg><svg viewBox="0 0 768 1024" id="octicon-repo"><path d="M320 256h-64v64h64v-64zm0-128h-64v64h64v-64zM704 0H64S0 32 0 64v768s32 64 64 64h128v128l96-96 96 96V896h320s64-32 64-64V64S736 0 704 0zm0 800c0 16-15 32-32 32H384v-64H192v64H96s-32-17-32-32v-96h640v96zm0-160H192V64h513l-1 576zM320 512h-64v64h64v-64zm0-128h-64v64h64v-64z"/></svg><svg viewBox="0 0 1024 1024" id="octicon-repo-clone"><path d="M320 384h-64v64h64v-64zM192 64h256V0H64S0 32 0 64v768s32 64 64 64h128v128l96-96 96 96V896h320s64-32 64-64V640H192V64zm512 640v96s-14 32-32 32H384v-64H192v64H96s-32-16-32-32v-96h640zM320 256h-64v64h64v-64zm-64 320h64v-64h-64v64zM960 0H640s-64 32-64 64v384s32 64 64 64h64v64l32-32 32 32v-64h192s64-32 64-64V64S992 0 960 0zM704 448h-32s-32-15-32-32v-32h64v64zm256-32c0 16-15 32-32 32H768v-64h192v32zm0-96H704V64h224s32 0 32 32v224zM320 128h-64v64h64v-64z"/></svg><svg viewBox="0 0 767.896 1024" id="octicon-repo-force-push"><path d="M768 64c0-32-32-64-64-64H64S0 32 0 64v768s0-32 0 0 32 64 64 64h128v128l128-128V768H192v64H96s-32-15-32-32v-96h256v-64H192V64h512v576H576v64h128v96s-15 32-32 32h-96v64h128s64-32 64-64V64zM496 384h144L448 128 256 384h144L256 576h128v448h128V576h128L496 384z"/></svg><svg viewBox="0 0 768 1024" id="octicon-repo-forked"><path d="M768 128C768 57 711 0 640 0S512 57 512 128c0 47 26 89 64 111v106L384 557 192 345V239c38-22 64-63 64-111C256 57 199 0 128 0S0 57 0 128c0 47 26 89 64 111v156l256 282v109c-38 22-64 63-64 111 0 71 57 128 128 128s128-57 128-128c0-47-26-89-64-111V677l256-282V239c38-22 64-63 64-111zM128 65c34 0 62 28 62 62s-28 62-62 62-62-28-62-62 28-62 62-62zm256 891c-34 0-62-28-62-62s28-62 62-62 62 28 62 62-28 62-62 62zM640 65c34 0 62 28 62 62s-28 62-62 62-62-28-62-62 28-62 62-62z"/></svg><svg viewBox="0 0 1024 1024" id="octicon-repo-pull"><path d="M1024 320L832 128v128H448v128h384v128l192-192zM704 640H192V64h512v128h64V64S736 0 704 0H64S0 32 0 64v768s32 64 64 64h128v128l96-96 96 96V896h320s64-32 64-64V448h-64v192zm0 160c0 15-15 32-32 32H384v-64H192v64H96s-32-16-32-32v-96h640v96zM320 256h-64v64h64v-64zm0-128h-64v64h64v-64zm0 256h-64v64h64v-64zm-64 192h64v-64h-64v64z"/></svg><svg viewBox="0 0 768 1024" id="octicon-repo-push"><path d="M448 320L256 576h128v448h128V576h128L448 320zm-192 0h64v-64h-64v64zm64-192h-64v64h64v-64zM704 0H64S0 32 0 64v768s32 64 64 64h128v128l128-128V768H192v64H96s-32-14-32-32v-96h256v-64H192V64h513l-1 576H576v64h128v96s-15 32-32 32h-96v64h128s64-32 64-64V64S736 0 704 0z"/></svg><svg viewBox="0 0 1024 1024" id="octicon-rocket"><path d="M716.737 124.056c-71.926 41.686-148.04 96.13-218.436 166.555-45 45.032-81.212 88.78-110.39 129.78L209.54 453.35.048 662.997l186.817 5.815L318.427 537.25c-46.44 96.224-50.536 160.02-50.536 160.02l58.855 58.79s65.827-6.254 162.737-53.162l-134.375 134.22 5.88 186.882 209.585-209.52 33.086-179.253c41.403-29.02 85.185-65.046 129.716-109.545C803.8 455.227 858.21 379.142 899.93 307.216c-45.97-9.35-88.126-28.488-121.398-61.668-33.275-33.367-52.538-75.523-61.795-121.492zm69.424-37.213c5.005 45 19.953 81.274 44.78 105.98 24.77 24.985 60.98 39.902 106.14 44.844C1003.062 104.323 1023.952 0 1023.952 0S919.63 20.858 786.16 86.843z"/></svg><svg viewBox="0 0 768 1024" id="octicon-rss"><path d="M128 640C57.344 640 0 697.375 0 768s57.344 128 128 128 128-57.375 128-128-57.344-128-128-128zm0-256s-64 2-64 64 64 64 64 64c141.375 0 256 114.625 256 256 0 0 0 64 64 64s64-64 64-64c0-212-171.97-384-384-384zm0-256s-64 0-64 64 64 64 64 64c282.75 0 512 229.25 512 512 0 0 0 64 64 64s64-64 64-64c0-353.406-286.5-640-640-640z"/></svg><svg viewBox="0 0 1024 1024" id="octicon-ruby"><path d="M768 128H256L0 384l512 512 512-512-256-256zM128 384l192-192h384l192 192-384 384-384-384zm576-128H512v448l320-320-128-128z"/></svg><svg viewBox="0 0 895.875 1024" id="octicon-screen-full"><path d="M128 768h639.875V256H128v512zm127.938-384h384v256h-384V384zM64 192.062h191.938v-64H0V384h64V192.062zM64 640H0v255.938h255.938V832H64V640zm575.938-511.938v64h191.938V384h64V128.062H639.938zM831.875 832H639.938v63.938h255.938V640h-64v192z"/></svg><svg viewBox="0 0 896 1024" id="octicon-screen-normal"><path d="M127.938 191.938H0v64h191.938V64h-64v127.938zM0 832.062h127.938V960h64V768.062H0v64zm768.062-640.124V64h-64v191.938H896v-64H768.062zm-64 768.062h64V832.062H896v-64H704.062V960zm-512-256H704V320H192.062v384zM320 448h256v128H320V448z"/></svg><svg viewBox="0 0 973.125 1024" id="octicon-search"><path d="M960 832L710.875 582.875C746.438 524.812 768 457.155 768 384 768 171.97 596 0 384 0 171.97 0 0 171.97 0 384c0 212 171.97 384 384 384 73.156 0 140.812-21.562 198.875-57L832 960c17.5 17.5 46.5 17.375 64 0l64-64c17.5-17.5 17.5-46.5 0-64zM384 640c-141.375 0-256-114.625-256-256s114.625-256 256-256 256 114.625 256 256-114.625 256-256 256z"/></svg><svg viewBox="0 0 768 1024" id="octicon-server"><path d="M704 384H64c-35 0-64 32-64 64v128c0 32 32 64 64 64h640c32 0 64-32 64-64V448c0-32-32-64-64-64zM128 576H64V448h64v128zm128 0h-64V448h64v128zm128 0h-64V448h64v128zm128 0h-64V448h64v128zm192 128H64c-35 0-64 32-64 64v128c0 32 32 64 64 64h640c32 0 64-32 64-64V768c0-32-32-64-64-64zM128 896H64V768h64v128zm128 0h-64V768h64v128zm128 0h-64V768h64v128zm128 0h-64V768h64v128zM704 64H64C29 64 0 96 0 128v128c0 32 32 64 64 64h640c32 0 64-32 64-64V128c0-32-32-64-64-64zM128 256H64V128h64v128zm128 0h-64V128h64v128zm128 0h-64V128h64v128zm128 0h-64V128h64v128zm192-64h-64v-64h64v64z"/></svg><svg viewBox="0 0 896 1024" id="octicon-settings"><path d="M64 896h128V704H64v192zm128-768H64v320h128V128zm320 0H384v128h128V128zM0 640h256V512H0v128zm384 256h128V512H384v384zm-64-448h256V320H320v128zm512-320H704v384h128V128zM640 576v128h256V576H640zm64 320h128V768H704v128z"/></svg><svg viewBox="0 0 896 1024" id="octicon-sign-in"><path d="M640 576V448h256V320H640V192L448 336V192L192 64h512v192h64V0H64v832l384 192V832h320V512h-64v256H448V432z"/></svg><svg viewBox="0 0 1024 1024" id="octicon-sign-out"><path d="M640 768H384V192L128 64h512v192h64V0H0v832l384 192V832h320V512h-64v256zm384-384L768 192v128H512v128h256v128l256-192z"/></svg><svg viewBox="0 0 1024 1024" id="octicon-split"><path d="M448 256L192 0 0 192l311 300c15-81 43-136 133-230l5-6zM576 0l133 133-197 197c-99 99-128 162-128 309v384h256V639c0-52 19-94 53-128l197-197 133 133V-1H575z"/></svg><svg viewBox="0 0 1024 1024" id="octicon-squirrel"><path d="M768 64c-141.385 0-256 83.75-256 186.875C512 374.75 544 445 512 640c0-288-177-405.783-256-405.783 3.266-32.17-30.955-42.217-30.955-42.217s-14 7.124-19.354 21.583c-17.23-20.053-36.153-17.54-36.153-17.54l-8.49 37.08S44 274 42.41 439.417C56 461 141.31 478.102 201.888 467.118c57.157 2.956 42.99 50.648 30.193 63.446C178.083 584.562 128 512 64 512s-64 64 0 64 64 64 192 64c-198 77 0 256 0 256h-64c-64 0-64 64-64 64h384c192 0 320-64 320-222.182 0-54.34-27.7-114.63-64-162.228-70.943-93.023 14.453-171.156 64-127.59s192 64 192-128c0-141.385-114.615-256-256-256zM160 384c-17.674 0-32-14.327-32-32 0-17.674 14.326-32 32-32 17.673 0 32 14.326 32 32 0 17.673-14.327 32-32 32z"/></svg><svg viewBox="0 0 896 1024" id="octicon-star"><path d="M896 384l-313.5-40.78L448 64 313.47 343.22 0 384l230.47 208.875L171 895.938l277-148.812 277.062 148.812L665.5 592.875 896 384z"/></svg><svg viewBox="0 0 640 1024" id="octicon-steps"><path d="M136 64C60.89 64 0 164.29 0 288c0 68.83 17.02 141.84 34 254.54C47.3 630.83 79.67 704 136 704s94.08-48.79 94.08-137.97c0-30.37-24.97-78.75-26.08-120.03-2.02-74.46 49.93-104.17 49.93-173 0-123.71-42.83-209-117.93-209zm366.97 256c-75.1 0-117.93 85.29-117.93 209 0 68.83 51.95 98.54 49.93 173-1.11 41.28-26.08 89.66-26.08 120.03 0 89.18 37.75 137.97 94.08 137.97s88.7-73.17 102-161.46c16.98-112.7 34-185.71 34-254.54 0-123.71-60.89-224-136-224z"/></svg><svg viewBox="0 0 1024 1024" id="octicon-stop"><path d="M704 0H320L0 320v384l320 320h384l320-320V320L704 0zm192 640L640 896H384L128 640V384l256-256h256l256 256v256zm-448-64h128V256H448v320zm0 192h128V640H448v128z"/></svg><svg viewBox="0 0 768.051 1024" id="octicon-sync"><path d="M655.46 473.47c11.876 81.718-13.06 167.78-76.81 230.593-94.19 92.938-239.5 104.375-346.376 34.562l74.875-73L31.96 627.25 70.367 896l84.03-80.5c150.908 111.25 364.94 100.75 502.064-34.562 79.5-78.438 115.75-182.562 111.25-285.312L655.46 473.47zm-466-153.408c94.156-92.938 239.438-104.438 346.313-34.562l-75 72.97 275.188 38.405L697.587 128l-83.938 80.688C462.71 97.344 248.742 107.968 111.585 243.25 32.085 321.656-4.133 425.78.335 528.5l112.25 22.125c-11.875-81.75 13.125-167.72 76.875-230.563z"/></svg><svg viewBox="0 0 896 1024" id="octicon-tag"><path d="M384 64H128L0 192v256l512 512 384-384L384 64zM64 416V224l96-96h192l448 448-288 288L64 416zm384-96L256 512l256 256 192-192-256-256zm-96 192l96-96 160 160-96 96-160-160zm-32-224c0-53-43-96-96-96s-96 43-96 96 43 96 96 96 96-43 96-96zm-96 32c-17.656 0-32-14.344-32-32s14.344-32 32-32 32 14.344 32 32-14.344 32-32 32z"/></svg><svg viewBox="0 0 929.875 1024" id="octicon-telescope"><path d="M76 423c32-8 229-59 229-59-1 6-2 19-2 19 0 71 49 128 128 128s128-59 128-128c0-11-8-22-19-32l49 3s7-2 31-8c-51 14-108-31-126-99s8-135 60-149c-24 6-31 8-31 8L355 216c-34 9-55 46-46 80 2 9 7 17 12 23-7 12-12 26-15 40-27-1-51-19-59-46-9-34 11-69 45-78L47 300c-34 9-54 43-45 77s41 54 73 46zm419 153H367v64L47 960h128l192-128v128h128V832l192 128h128L495 640v-64zm429-448c-18-68-70-110-122-96-69 18-98 28-186 51-51 14-79 80-61 148s74 115 125 102c87-23 117-33 186-51 51-14 76-85 58-154zm-70 90c-17 5-42-17-51-51s-4-66 13-70 42 17 51 51 4 66-13 70z"/></svg><svg viewBox="0 0 896 1024" id="octicon-terminal"><path d="M831 127H63c-35.35 0-64 28.65-64 64v640c0 35.35 28.65 64 64 64h768c35.35 0 64-28.65 64-64V191c0-35.35-28.65-64-64-64zM127 575l128-128-128-128 64-64 192 192-192 192-64-64zm512 64H383v-64h256v64z"/></svg><svg viewBox="0 0 768 1024" id="octicon-three-bars"><path d="M0 192v128h768V192H0zm0 384h768V448H0v128zm0 256h768V704H0v128z"/></svg><svg viewBox="0 0 1024 1024" id="octicon-thumbsdown"><path d="M833 574c0 38-31 68-68 68H654c-5 0-109-4-128 8-19 11-21 101-8 139 12 34 22 100-16 150-23 30-57 25-78 17-23-8-14-50-10-86 4-35-14-93-47-123s-29-58-45-86-41-52-62-86-68-41-132-39V183s93 0 114-2c31-3 72-13 112-26 41-13 128-26 140-26 89-3 174 18 208 24 34 7 60 41 54 77-2 11-6 21-12 29 6 2 11 5 16 9 22 12 36 34 36 60 0 21-9 39-24 52 4 1 8 3 12 5 27 9 47 35 47 65 0 27-16 51-40 62 2 1 4 2 6 4 15 9 26 23 31 40 2 6 3 11 3 18v2z"/></svg><svg viewBox="0 0 1024 1024" id="octicon-thumbsup"><path d="M833 451c0-38-31-68-68-68H654c-5 0-109 4-128-8-19-11-21-101-8-139 12-34 22-100-16-150-23-30-57-25-78-17-23 8-14 50-10 86 4 35-14 93-47 123s-29 58-45 86-41 52-62 86-68 41-132 39v353s93 0 114 2c31 3 72 13 112 26 41 13 128 26 140 26 89 3 174-18 208-24s60-41 54-77c-2-11-6-21-12-29 6-2 11-5 16-9 22-12 36-34 36-60 0-21-9-39-24-52 4-1 8-3 12-5 27-9 47-35 47-65 0-27-16-51-40-62 2-1 4-2 6-4 15-9 26-23 31-40 2-6 3-11 3-18v-2z"/></svg><svg viewBox="0 0 1024 1024" id="octicon-tools"><path d="M286.547 465.016c16.843 16.812 81.716 85.28 81.716 85.28L404.23 513.2l-56.372-58.248L456.072 340.02s-48.842-47.623-27.468-28.655c20.438-75.903 1.812-160.59-55.842-220.243-57.154-59.186-138.37-78.592-211.337-58.218L285.078 160.62l-32.53 125.308-121.06 33.438L7.898 191.618c-19.718 75.436-.97 159.34 56.31 218.556 60.094 62.123 146.622 80.373 222.34 54.842zM698.815 589.23l-149.12 147.31 245.93 254.804c20.063 20.812 46.5 31.188 72.873 31.188 26.25 0 52.624-10.375 72.81-31.188 40.25-41.624 40.25-108.997 0-150.62L698.816 589.23zM1023.68 161.84L867.06-.002 405.387 477.3l56.373 58.247L185.425 821.16l-63.154 33.75-89.216 145.56 22.72 23.56 140.838-92.246 32.655-65.312 276.336-285.554 56.404 58.248 461.674-477.328z"/></svg><svg viewBox="0 0 768 1024" id="octicon-trashcan"><path d="M704 128H448V96c0-17.673-14.327-32-32-32s-32 14.327-32 32v32H128c-35.346 0-64 28.654-64 64v64c0 35.346 28.654 64 64 64v576c0 35.346 28.654 64 64 64h448c35.346 0 64-28.654 64-64V320c35.346 0 64-28.654 64-64v-64c0-35.346-28.654-64-64-64zm-64 736c0 17.673-14.327 32-32 32H224c-17.673 0-32-14.327-32-32V320h64v480c0 17.673 14.327 32 32 32s32-14.327 32-32l.387-480H384v480c0 17.673 14.327 32 32 32s32-14.327 32-32l.387-480h64L512 800c0 17.673 14.327 32 32 32s32-14.327 32-32V320h64v544zm64-624c0 8.837-7.163 16-16 16H144c-8.837 0-16-7.163-16-16v-32c0-8.837 7.163-16 16-16h544c8.837 0 16 7.163 16 16v32z"/></svg><svg viewBox="0 0 767.5 1024" id="octicon-triangle-down"><path d="M0 384l383.75 383.75L767.5 384H0z"/></svg><svg viewBox="0 0 383.75 1024" id="octicon-triangle-left"><path d="M0 511.875l383.75 383.75v-767.5L0 511.875z"/></svg><svg viewBox="0 0 383.875 1024" id="octicon-triangle-right"><path d="M.062 128.25L383.812 512 .062 895.75v-767.5z"/></svg><svg viewBox="0 0 767.5 1024" id="octicon-triangle-up"><path d="M383.75 256L0 639.75h767.5L383.75 256z"/></svg><svg viewBox="0 0 896 1024" id="octicon-unfold"><path d="M384 384h128V192h128L448 0 256 192h128v192zm192-128v64h224L672 448H224L96 320h224v-64H0v64l160 160L0 640v64h320v-64H96l128-128h448l128 128H576v64h320v-64L736 480l160-160v-64H576zm-64 320H384v192H256l192 192 192-192H512V576z"/></svg><svg viewBox="0 0 896 1024" id="octicon-unmute"><path d="M128 384H0v256h128l256 192h64V192h-64L128 384zm410.51 37.49c-12.496-12.497-32.758-12.497-45.255 0-12.496 12.496-12.496 32.758 0 45.255 24.994 24.993 24.994 65.516 0 90.51-12.496 12.496-12.496 32.758 0 45.255 12.497 12.496 32.76 12.496 45.255 0 49.987-49.99 49.987-131.033 0-181.02zm90.51-90.51c-12.495-12.496-32.758-12.496-45.255 0-12.495 12.497-12.495 32.76 0 45.256 74.98 74.98 74.98 196.548 0 271.528-12.495 12.497-12.495 32.76 0 45.256 12.497 12.496 32.76 12.496 45.255 0 99.974-99.974 99.974-262.065 0-362.04zm90.51-90.51c-12.498-12.496-32.76-12.496-45.256 0-12.496 12.497-12.496 32.76 0 45.256 124.968 124.968 124.968 327.58 0 452.548-12.496 12.497-12.496 32.76 0 45.255 12.495 12.496 32.758 12.496 45.255 0 149.96-149.963 149.96-393.098 0-543.06z"/></svg><svg viewBox="0 0 896 1024" id="octicon-versions"><path d="M0 704h128v-64H64V384h64v-64H0v384zm384-512v640h512V192H384zm384 512H512V320h256v384zm-576 64h128v-64h-64V320h64v-64H192v512z"/></svg><svg viewBox="0 0 640 1024" id="octicon-x"><path d="M640 320L512 192 320 384 128 192 0 320l192 192L0 704l128 128 192-192 192 192 128-128-192-192 192-192z"/></svg><svg viewBox="0 0 640 1024" id="octicon-zap"><path d="M640 448H384L576 0 0 576h256L64 1024l576-576z"/></svg></defs></svg>